<?xml version="1.0" encoding="UTF-8"?>
<svg xmlns="http://www.w3.org/2000/svg" xmlns:xlink="http://www.w3.org/1999/xlink" version="1.2" >
<font id="Agenda Medium">
<font-face  font-family="Agenda" units-per-em="1000" ascent="750" descent="-250" font-style="normal" font-weight="500" font-stretch="normal" cap-height="750" x-height="500" underline-position="-159" underline-thickness="18" />
<missing-glyph  horiz-adv-x="500" d="" />
<glyph glyph-name="CR" unicode="&#xd;" horiz-adv-x="250" d="" />
<glyph glyph-name="space" unicode="&#x20;" horiz-adv-x="230" d="" />
<glyph glyph-name="exclam" unicode="&#x21;" horiz-adv-x="267" d="M187 682 L80 682 L96 180 L171 163 L187 682 Z M198 50 C198 69 157 110 137 110 C117 110 76 69 76 50 C76 30 117 -11 137 -11 C157 -11 198 30 198 50 L198 50 Z " />
<glyph glyph-name="quotedbl" unicode="&#x22;" horiz-adv-x="313" d="M274 712 L193 712 L209 483 L257 483 L274 712 Z M120 712 L39 712 L54 483 L102 483 L120 712 Z " />
<glyph glyph-name="numbersign" unicode="&#x23;" horiz-adv-x="431" d="M403 379 L403 437 L356 437 L402 638 L337 638 L291 437 L196 437 L242 638 L177 638 L131 437 L52 437 L52 379 L117 379 L89 259 L27 259 L27 201 L75 201 L29 0 L94 0 L140 201 L235 201 L189 0 L254 0 L300 201 L378 201 L378 259 L314 259 L342 379 L403 379 Z M277 379 L249 259 L154 259 L182 379 L277 379 Z " />
<glyph glyph-name="dollar" unicode="&#x24;" horiz-adv-x="468" d="M424 178 C424 274 347 339 237 381 C169 407 131 439 131 483 C131 530 172 572 238 572 C287 572 329 558 365 538 L383 616 C350 635 313 648 253 651 L253 737 L196 737 L196 648 C98 631 42 562 42 475 C42 390 112 326 219 288 C293 262 334 220 334 170 C334 115 288 68 209 68 C145 68 94 94 59 120 L39 37 C78 11 128 -9 196 -12 L196 -97 L253 -97 L253 -9 C369 5 424 87 424 178 L424 178 Z " />
<glyph glyph-name="percent" unicode="&#x25;" horiz-adv-x="696" d="M321 508 C321 592 260 651 178 651 C97 651 36 592 36 508 C36 422 97 364 178 364 C260 364 321 422 321 508 L321 508 Z M632 626 L588 663 L63 13 L107 -24 L632 626 Z M660 132 C660 215 599 275 518 275 C436 275 375 215 375 132 C375 46 436 -12 518 -12 C599 -12 660 46 660 132 L660 132 Z M247 508 C247 462 215 433 178 433 C140 433 110 462 110 508 C110 553 140 581 178 581 C215 581 247 553 247 508 L247 508 Z M586 132 C586 86 555 56 518 56 C480 56 449 86 449 132 C449 177 480 204 518 204 C555 204 586 177 586 132 L586 132 Z " />
<glyph glyph-name="ampersand" unicode="&#x26;" horiz-adv-x="604" d="M618 0 L497 121 C532 167 554 218 566 254 L505 316 C491 273 468 224 437 181 L298 320 C362 353 421 416 421 490 C421 588 331 651 246 651 C164 651 79 588 79 490 C79 437 112 381 158 337 C84 299 39 245 39 160 C39 67 123 -12 242 -12 C325 -12 389 17 438 57 L495 0 L618 0 Z M334 489 C334 452 299 410 239 379 C194 423 166 455 166 489 C166 529 201 573 246 573 C294 573 334 530 334 489 L334 489 Z M378 117 C340 87 296 67 247 67 C183 67 131 111 131 165 C131 218 159 249 217 278 L378 117 Z " />
<glyph glyph-name="quotesingle" unicode="&#x27;" horiz-adv-x="159" d="M120 712 L39 712 L54 483 L102 483 L120 712 Z " />
<glyph glyph-name="parenleft" unicode="&#x28;" horiz-adv-x="270" d="M246 691 L155 711 C85 580 42 432 42 241 C42 45 85 -83 147 -206 L241 -227 C166 -74 131 68 131 242 C131 409 179 569 246 691 L246 691 Z " />
<glyph glyph-name="parenright" unicode="&#x29;" horiz-adv-x="270" d="M228 241 C228 437 185 565 123 688 L29 710 C103 556 139 415 139 240 C139 74 91 -86 24 -208 L114 -229 C185 -97 228 50 228 241 L228 241 Z " />
<glyph glyph-name="asterisk" unicode="&#x2a;" horiz-adv-x="416" d="M402 517 L358 590 L239 540 L249 688 L166 669 L174 540 L39 594 L30 512 L155 480 L62 366 L138 331 L207 440 L287 317 L343 379 L260 480 L402 517 Z " />
<glyph glyph-name="plus" unicode="&#x2b;" horiz-adv-x="454" d="M414 238 L414 316 L270 316 L270 453 L185 453 L185 316 L40 316 L40 238 L185 238 L185 101 L270 101 L270 238 L414 238 Z " />
<glyph glyph-name="comma" unicode="&#x2c;" horiz-adv-x="197" d="M159 50 C159 73 115 110 98 110 C79 110 37 72 37 50 C37 34 68 5 86 2 C81 -29 57 -79 21 -125 L56 -131 C103 -87 159 9 159 50 L159 50 Z " />
<glyph glyph-name="hyphen" unicode="&#x2d;" horiz-adv-x="330" d="M290 238 L290 316 L40 316 L40 238 L290 238 Z " />
<glyph glyph-name="period" unicode="&#x2e;" horiz-adv-x="197" d="M159 50 C159 69 118 110 98 110 C78 110 37 69 37 50 C37 30 78 -11 98 -11 C118 -11 159 30 159 50 L159 50 Z " />
<glyph glyph-name="slash" unicode="&#x2f;" horiz-adv-x="617" d="M599 627 L541 675 L18 31 L79 -18 L599 627 Z " />
<glyph glyph-name="zero" unicode="0" horiz-adv-x="554" d="M514 320 C514 551 395 651 277 651 C156 651 40 551 40 320 C40 87 156 -12 277 -12 C395 -12 514 87 514 320 L514 320 Z M422 320 C422 133 349 69 277 69 C204 69 132 133 132 320 C132 505 204 570 277 570 C349 570 422 505 422 320 L422 320 Z " />
<glyph glyph-name="one" unicode="1" horiz-adv-x="331" d="M241 0 L241 651 L35 632 L18 556 L150 569 L150 0 L241 0 Z " />
<glyph glyph-name="two" unicode="2" horiz-adv-x="481" d="M444 0 L444 78 L189 78 C261 149 410 327 410 450 C410 581 322 651 202 651 C142 651 92 633 49 605 L68 525 C109 552 149 571 202 571 C267 571 318 533 318 453 C318 350 192 190 29 18 L29 0 L444 0 Z " />
<glyph glyph-name="three" unicode="3" horiz-adv-x="423" d="M383 189 C383 302 310 364 247 379 C287 390 331 442 331 507 C331 592 259 651 161 651 C115 651 77 641 39 620 L55 543 C93 565 120 572 158 572 C204 572 240 544 240 499 C240 451 188 411 122 398 L140 323 C147 324 155 324 158 324 C231 324 291 266 291 200 C291 109 217 69 147 69 C110 69 68 79 31 100 L52 8 C85 -5 119 -11 151 -11 C300 -11 383 74 383 189 L383 189 Z " />
<glyph glyph-name="four" unicode="4" horiz-adv-x="496" d="M450 171 L450 245 L375 245 L375 638 L314 638 L13 243 L29 171 L284 171 L284 0 L375 0 L375 171 L450 171 Z M285 478 C284 450 284 425 284 400 L284 245 L108 245 L226 399 C245 424 265 450 283 479 L285 478 Z " />
<glyph glyph-name="five" unicode="5" horiz-adv-x="450" d="M410 195 C410 327 312 407 193 407 C185 407 175 406 167 405 L171 560 L346 560 L363 638 L84 638 L74 310 C104 321 137 327 184 327 C255 327 318 278 318 196 C318 116 255 69 181 69 C137 69 92 79 49 104 L70 12 C95 -1 137 -11 186 -11 C333 -11 410 85 410 195 L410 195 Z " />
<glyph glyph-name="six" unicode="6" horiz-adv-x="509" d="M469 197 C469 312 386 403 264 403 C222 403 186 392 163 369 C210 465 297 556 426 618 L336 660 C165 572 40 390 40 220 C40 70 141 -11 257 -11 C379 -11 469 77 469 197 L469 197 Z M377 196 C377 120 325 69 259 69 C193 69 133 129 133 201 C133 211 133 229 135 238 C154 300 201 323 258 323 C328 323 377 268 377 196 L377 196 Z " />
<glyph glyph-name="seven" unicode="7" horiz-adv-x="462" d="M454 638 L31 638 L31 560 L324 560 L82 0 L180 0 L454 638 Z " />
<glyph glyph-name="eight" unicode="8" horiz-adv-x="507" d="M467 177 C467 273 389 335 346 351 C389 370 439 419 439 489 C439 584 359 651 253 651 C147 651 68 584 68 489 C68 419 116 367 161 349 C119 332 40 273 40 177 C40 58 137 -12 253 -12 C369 -12 467 58 467 177 L467 177 Z M352 487 C352 444 317 406 258 389 C199 405 157 443 157 487 C157 537 201 574 254 574 C309 574 352 537 352 487 L352 487 Z M375 180 C375 115 318 68 250 68 C184 68 126 115 126 180 C126 246 192 288 246 304 C302 289 375 246 375 180 L375 180 Z " />
<glyph glyph-name="nine" unicode="9" horiz-adv-x="509" d="M469 420 C469 570 368 651 252 651 C130 651 40 563 40 443 C40 328 123 237 245 237 C287 237 323 248 346 271 C299 175 212 84 83 22 L173 -20 C344 68 469 250 469 420 L469 420 Z M376 439 C376 429 376 411 374 402 C355 340 308 317 251 317 C181 317 132 372 132 444 C132 520 184 571 250 571 C316 571 376 511 376 439 L376 439 Z " />
<glyph glyph-name="colon" unicode="&#x3a;" horiz-adv-x="197" d="M159 403 C159 423 118 464 98 464 C78 464 37 423 37 403 C37 384 78 343 98 343 C118 343 159 384 159 403 L159 403 Z M159 50 C159 69 118 110 98 110 C78 110 37 69 37 50 C37 30 78 -11 98 -11 C118 -11 159 30 159 50 L159 50 Z " />
<glyph glyph-name="semicolon" unicode="&#x3b;" horiz-adv-x="197" d="M159 403 C159 423 118 464 98 464 C78 464 37 423 37 403 C37 384 78 343 98 343 C118 343 159 384 159 403 L159 403 Z M159 50 C159 73 115 110 98 110 C79 110 37 72 37 50 C37 34 68 5 86 2 C81 -29 57 -79 21 -125 L56 -131 C103 -87 159 9 159 50 L159 50 Z " />
<glyph glyph-name="less" unicode="&#x3c;" horiz-adv-x="358" d="M278 155 L157 277 L278 399 L219 457 L39 277 L219 97 L278 155 Z " />
<glyph glyph-name="equal" unicode="&#x3d;" horiz-adv-x="454" d="M414 324 L414 402 L40 402 L40 324 L414 324 Z M414 152 L414 230 L40 230 L40 152 L414 152 Z " />
<glyph glyph-name="greater" unicode="&#x3e;" horiz-adv-x="358" d="M319 277 L139 457 L80 399 L201 277 L80 155 L139 97 L319 277 Z " />
<glyph glyph-name="question" unicode="&#x3f;" horiz-adv-x="392" d="M352 513 C352 627 270 693 157 693 C101 693 52 675 22 646 L40 563 C72 593 106 613 158 613 C222 613 257 564 257 524 C257 471 233 437 192 394 C152 352 129 291 129 231 C129 209 132 195 136 178 L211 161 C208 176 208 192 208 219 C208 257 222 297 259 337 C314 397 352 446 352 513 L352 513 Z M239 50 C239 69 199 110 178 110 C158 110 117 69 117 50 C117 30 158 -11 178 -11 C199 -11 239 30 239 50 L239 50 Z " />
<glyph glyph-name="at" unicode="&#x40;" horiz-adv-x="766" d="M726 383 C726 531 617 652 439 652 C221 652 40 480 40 266 C40 99 155 -11 305 -11 C358 -11 393 2 409 14 L429 93 C403 70 362 58 319 58 C213 58 115 120 115 266 C115 446 262 585 432 585 C565 585 654 501 654 385 C654 284 586 207 543 207 C532 207 524 216 524 237 C524 240 524 244 525 248 L559 461 C541 479 501 500 448 500 C334 500 216 407 216 267 C216 181 273 135 330 135 C390 135 436 160 460 204 C463 158 495 135 530 135 C658 135 726 275 726 383 L726 383 Z M473 424 L459 342 C444 256 398 204 354 204 C319 204 297 226 297 269 C297 362 366 430 442 430 C455 430 466 427 473 424 L473 424 Z " />
<glyph glyph-name="A" unicode="A" horiz-adv-x="619" d="M599 0 L327 647 L292 647 L20 0 L115 0 L184 165 L432 165 L501 0 L599 0 Z M399 242 L217 242 L280 398 C289 419 300 449 307 476 L309 476 C317 449 327 419 336 398 L399 242 Z " />
<glyph glyph-name="B" unicode="B" horiz-adv-x="521" d="M481 194 C481 276 422 342 363 359 C400 375 422 424 422 471 C422 583 328 638 243 638 L65 638 L65 0 L272 0 C371 0 481 62 481 194 L481 194 Z M324 471 C324 412 279 388 227 388 L161 388 L161 556 L227 556 C279 556 324 531 324 471 L324 471 Z M382 194 C382 116 319 82 252 82 L161 82 L161 306 L252 306 C319 306 382 270 382 194 L382 194 Z " />
<glyph glyph-name="C" unicode="C" horiz-adv-x="600" d="M572 609 C533 631 472 651 384 651 C225 651 40 540 40 319 C40 101 223 -12 384 -12 C466 -12 511 -2 551 19 L571 112 C531 88 471 72 395 72 C267 72 138 154 138 319 C138 486 270 567 395 567 C461 567 524 545 555 525 L572 609 Z " />
<glyph glyph-name="D" unicode="D" horiz-adv-x="646" d="M606 319 C606 525 439 638 261 638 L65 638 L65 0 L261 0 C439 0 606 113 606 319 L606 319 Z M507 319 C507 157 388 82 244 82 L161 82 L161 556 L244 556 C388 556 507 481 507 319 L507 319 Z " />
<glyph glyph-name="E" unicode="E" horiz-adv-x="465" d="M444 0 L444 83 L162 83 L162 279 L369 279 L369 362 L162 362 L162 555 L409 555 L409 638 L65 638 L65 0 L444 0 Z " />
<glyph glyph-name="F" unicode="F" horiz-adv-x="432" d="M418 555 L418 638 L65 638 L65 0 L162 0 L162 279 L378 279 L378 362 L162 362 L162 555 L418 555 Z " />
<glyph glyph-name="G" unicode="G" horiz-adv-x="681" d="M623 57 L623 316 L384 316 L384 238 L531 238 L531 105 C501 84 455 72 396 72 C266 72 138 153 138 318 C138 485 270 567 395 567 C462 567 525 546 572 516 L590 600 C543 630 472 651 384 651 C225 651 40 540 40 319 C40 103 218 -12 390 -12 C485 -12 562 8 623 57 L623 57 Z " />
<glyph glyph-name="H" unicode="H" horiz-adv-x="653" d="M588 0 L588 638 L491 638 L491 362 L162 362 L162 638 L65 638 L65 0 L162 0 L162 279 L491 279 L491 0 L588 0 Z " />
<glyph glyph-name="I" unicode="I" horiz-adv-x="257" d="M177 0 L177 638 L80 638 L80 0 L177 0 Z " />
<glyph glyph-name="J" unicode="J" horiz-adv-x="272" d="M192 126 L192 638 L95 638 L95 136 C95 16 38 -48 -61 -66 L2 -130 C88 -114 192 -34 192 126 L192 126 Z " />
<glyph glyph-name="K" unicode="K" horiz-adv-x="544" d="M532 0 L261 323 L526 638 L414 638 L162 337 L162 638 L65 638 L65 0 L162 0 L162 299 L413 0 L532 0 Z " />
<glyph glyph-name="L" unicode="L" horiz-adv-x="448" d="M443 0 L443 83 L162 83 L162 638 L65 638 L65 0 L443 0 Z " />
<glyph glyph-name="M" unicode="M" horiz-adv-x="830" d="M785 0 L728 638 L668 638 L500 310 C473 257 442 195 422 146 L420 146 C399 195 366 260 340 310 L170 638 L110 638 L55 0 L141 0 L166 288 C169 326 174 382 176 431 L178 431 C200 384 227 327 249 285 L399 -5 L435 -5 L583 285 C604 326 635 388 655 433 L657 433 C659 386 663 331 667 288 L693 0 L785 0 Z " />
<glyph glyph-name="N" unicode="N" horiz-adv-x="702" d="M637 -14 L637 638 L540 638 L540 336 C540 290 540 235 542 186 L540 185 C501 233 443 297 406 338 L132 638 L65 638 L65 0 L162 0 L162 320 C162 368 162 422 160 480 L162 481 C206 429 261 365 309 313 L608 -14 L637 -14 Z " />
<glyph glyph-name="O" unicode="O" horiz-adv-x="756" d="M716 320 C716 525 548 651 378 651 C208 651 40 525 40 320 C40 113 208 -12 378 -12 C548 -12 716 113 716 320 L716 320 Z M618 320 C618 162 494 72 378 72 C260 72 138 162 138 320 C138 478 260 567 378 567 C494 567 618 478 618 320 L618 320 Z " />
<glyph glyph-name="P" unicode="P" horiz-adv-x="467" d="M449 459 C449 580 347 638 257 638 L65 638 L65 0 L161 0 L161 280 L257 280 C347 280 449 338 449 459 L449 459 Z M350 459 C350 392 297 362 240 362 L161 362 L161 556 L240 556 C297 556 350 525 350 459 L350 459 Z " />
<glyph glyph-name="Q" unicode="Q" horiz-adv-x="756" d="M757 -42 C732 -52 711 -54 689 -54 C657 -54 618 -48 570 -25 C530 -6 509 4 491 8 L491 10 C613 46 716 163 716 320 C716 525 548 651 378 651 C208 651 40 525 40 320 C40 126 187 4 345 -10 C380 -26 439 -54 501 -86 C558 -117 604 -130 669 -130 C678 -130 688 -129 696 -127 L757 -42 Z M618 320 C618 162 494 72 378 72 C260 72 138 162 138 320 C138 478 260 567 378 567 C494 567 618 478 618 320 L618 320 Z " />
<glyph glyph-name="R" unicode="R" horiz-adv-x="555" d="M565 0 L347 295 C409 320 459 374 459 459 C459 580 357 638 267 638 L65 638 L65 0 L161 0 L161 280 L251 280 L452 0 L565 0 Z M360 459 C360 392 307 362 250 362 L161 362 L161 556 L250 556 C307 556 360 525 360 459 L360 459 Z " />
<glyph glyph-name="S" unicode="S" horiz-adv-x="477" d="M438 180 C438 288 363 347 252 385 C185 408 149 442 149 484 C149 531 189 571 254 571 C306 571 356 550 378 534 L397 614 C374 631 321 651 258 651 C122 651 56 566 56 477 C56 389 116 325 230 288 C307 263 341 226 341 171 C341 112 294 72 223 72 C154 72 92 94 31 137 L53 31 C86 9 149 -12 218 -12 C362 -12 438 66 438 180 L438 180 Z " />
<glyph glyph-name="T" unicode="T" horiz-adv-x="517" d="M512 555 L512 638 L5 638 L5 555 L210 555 L210 0 L307 0 L307 555 L512 555 Z " />
<glyph glyph-name="U" unicode="U" horiz-adv-x="650" d="M585 225 L585 638 L491 638 L491 235 C491 140 437 74 326 74 C215 74 162 140 162 235 L162 638 L65 638 L65 225 C65 76 176 -12 325 -12 C474 -12 585 76 585 225 L585 225 Z " />
<glyph glyph-name="V" unicode="V" horiz-adv-x="558" d="M548 638 L456 638 L338 334 C320 288 302 235 285 182 L283 182 C266 236 247 290 230 334 L112 638 L10 638 L264 -9 L295 -9 L548 638 Z " />
<glyph glyph-name="W" unicode="W" horiz-adv-x="899" d="M884 638 L795 638 L692 344 C678 304 658 249 645 198 L643 198 C629 250 612 303 598 344 L495 638 L412 638 L310 344 C295 301 278 250 264 198 L262 198 C249 250 230 302 215 344 L112 638 L15 638 L241 -9 L274 -9 L393 332 C410 380 428 434 448 503 L450 503 C470 434 488 381 505 332 L624 -9 L657 -9 L884 638 Z " />
<glyph glyph-name="X" unicode="X" horiz-adv-x="574" d="M549 0 L346 329 L540 638 L437 638 L337 478 C322 454 304 424 291 399 L289 399 C276 424 257 455 243 478 L144 638 L34 638 L229 323 L25 0 L128 0 L234 168 C249 192 270 226 284 252 L286 252 C301 225 319 194 335 168 L439 0 L549 0 Z " />
<glyph glyph-name="Y" unicode="Y" horiz-adv-x="604" d="M594 638 L495 638 L367 458 C350 433 324 396 306 368 L304 368 C286 396 263 431 244 458 L116 638 L10 638 L254 294 L254 0 L349 0 L349 294 L594 638 Z " />
<glyph glyph-name="Z" unicode="Z" horiz-adv-x="508" d="M482 0 L482 81 L164 81 L163 82 C194 133 234 202 267 259 L471 615 L471 638 L46 638 L46 557 L336 557 L337 556 C306 507 265 435 232 378 L30 23 L30 0 L482 0 Z " />
<glyph glyph-name="bracketleft" unicode="&#x5b;" horiz-adv-x="298" d="M268 -218 L268 -142 L145 -142 L145 624 L268 624 L268 700 L56 700 L56 -218 L268 -218 Z " />
<glyph glyph-name="backslash" unicode="&#x5c;" horiz-adv-x="617" d="M599 31 L76 675 L18 627 L538 -18 L599 31 Z " />
<glyph glyph-name="bracketright" unicode="&#x5d;" horiz-adv-x="298" d="M248 -218 L248 700 L36 700 L36 624 L159 624 L159 -142 L36 -142 L36 -218 L248 -218 Z " />
<glyph glyph-name="asciicircum" unicode="&#x5e;" horiz-adv-x="371" d="M339 554 C277 581 225 632 186 687 C147 632 94 581 32 554 L89 500 C125 517 154 535 186 567 C217 535 247 517 283 500 L339 554 Z " />
<glyph glyph-name="underscore" unicode="&#x5f;" horiz-adv-x="500" d="M502 -231 L502 -153 L-1 -153 L-1 -231 L502 -231 Z " />
<glyph glyph-name="grave" unicode="&#x60;" horiz-adv-x="400" d="M311 563 C248 581 168 617 114 668 L94 586 C151 547 198 531 261 514 L311 563 Z " />
<glyph glyph-name="a" unicode="a" horiz-adv-x="456" d="M432 47 C403 52 381 76 381 117 L381 300 C381 407 308 464 207 464 C152 464 100 452 59 425 L77 350 C110 372 157 386 202 386 C266 386 290 353 290 312 L290 283 L184 273 C107 266 35 216 35 128 C35 55 91 -11 181 -11 C230 -11 276 5 308 47 C318 19 343 -4 374 -11 L432 47 Z M290 168 C290 111 233 66 185 66 C149 66 122 95 122 127 C122 160 146 195 200 200 L290 208 L290 168 Z " />
<glyph glyph-name="b" unicode="b" horiz-adv-x="512" d="M477 230 C477 372 359 464 230 464 C192 464 166 456 151 449 L151 712 L60 712 L60 31 C96 9 149 -11 218 -11 C371 -11 477 80 477 230 L477 230 Z M385 230 C385 133 323 69 218 69 C183 69 167 75 151 81 L151 364 C167 374 196 384 230 384 C306 384 385 325 385 230 L385 230 Z " />
<glyph glyph-name="c" unicode="c" horiz-adv-x="458" d="M426 430 C388 451 341 464 281 464 C157 464 35 375 35 226 C35 78 157 -11 281 -11 C326 -11 367 -3 400 12 L419 101 C368 77 331 69 289 69 C206 69 127 129 127 226 C127 324 204 384 287 384 C331 384 368 376 409 350 L426 430 Z " />
<glyph glyph-name="d" unicode="d" horiz-adv-x="538" d="M478 0 L478 712 L387 712 L387 434 C364 449 323 464 274 464 C139 464 35 366 35 226 C35 69 160 -11 257 -11 C319 -11 369 6 397 36 L400 0 L478 0 Z M387 115 C363 88 323 69 274 69 C193 69 127 132 127 226 C127 321 193 384 274 384 C322 384 363 365 387 342 L387 115 Z " />
<glyph glyph-name="e" unicode="e" horiz-adv-x="491" d="M456 292 C456 376 385 464 260 464 C155 464 35 380 35 226 C35 85 149 -11 278 -11 C339 -11 380 1 412 18 L435 115 C393 85 348 69 290 69 C184 69 132 148 129 204 L402 204 L453 255 C455 265 456 278 456 292 L456 292 Z M364 290 C364 286 364 282 363 278 L135 278 C147 341 208 386 265 386 C325 386 364 335 364 290 L364 290 Z " />
<glyph glyph-name="f" unicode="f" horiz-adv-x="335" d="M367 701 C343 711 317 716 290 716 C159 716 87 643 87 495 L87 453 L10 453 L10 380 L87 380 L87 0 L178 0 L178 380 L294 380 L309 453 L178 453 L178 523 C178 583 211 640 273 640 C300 640 328 635 351 624 L367 701 Z " />
<glyph glyph-name="g" unicode="g" horiz-adv-x="460" d="M431 -81 C431 2 384 46 304 74 L180 117 C170 121 167 129 167 133 C167 153 189 158 225 158 C331 158 394 230 394 311 C394 340 387 365 378 380 C393 381 416 387 423 392 L406 467 C390 459 365 451 339 451 C317 451 296 453 281 457 C266 461 249 464 225 464 C125 464 55 400 55 311 C55 261 80 218 122 188 C97 175 71 147 71 114 L117 68 C68 51 23 0 23 -68 C23 -162 105 -231 229 -231 C350 -231 431 -167 431 -81 L431 -81 Z M311 311 C311 268 271 233 225 233 C175 233 138 268 138 311 C138 352 175 389 225 389 C275 389 311 352 311 311 L311 311 Z M347 -80 C347 -116 307 -158 227 -158 C145 -158 104 -113 104 -68 C104 -18 142 20 198 20 L277 -3 C324 -17 347 -45 347 -80 L347 -80 Z " />
<glyph glyph-name="h" unicode="h" horiz-adv-x="511" d="M456 0 L456 300 C456 401 383 464 284 464 C218 464 184 448 151 416 C151 414 151 712 151 712 L60 712 L60 0 L151 0 L151 291 C151 338 187 386 260 386 C336 386 365 338 365 291 L365 0 L456 0 Z " />
<glyph glyph-name="i" unicode="i" horiz-adv-x="242" d="M177 595 C177 614 140 651 121 651 C103 651 66 614 66 595 C66 577 103 540 121 540 C140 540 177 577 177 595 L177 595 Z M167 0 L167 453 L75 453 L75 0 L167 0 Z " />
<glyph glyph-name="j" unicode="j" horiz-adv-x="242" d="M176 595 C176 614 139 651 121 651 C102 651 65 614 65 595 C65 577 102 540 121 540 C139 540 176 577 176 595 L176 595 Z M167 -49 L167 453 L75 453 L75 -42 C75 -120 36 -161 -23 -174 L35 -231 C100 -216 167 -144 167 -49 L167 -49 Z " />
<glyph glyph-name="k" unicode="k" horiz-adv-x="459" d="M458 0 L254 229 L452 453 L344 453 L151 237 L151 712 L60 712 L60 0 L151 0 L151 213 L340 0 L458 0 Z " />
<glyph glyph-name="l" unicode="l" horiz-adv-x="263" d="M227 44 C199 49 166 77 166 119 L166 712 L75 712 L75 107 C75 20 135 -10 165 -18 L227 44 Z " />
<glyph glyph-name="m" unicode="m" horiz-adv-x="782" d="M727 0 L727 318 C727 402 659 464 567 464 C484 464 435 435 404 400 C381 434 333 464 277 464 C206 464 174 446 139 408 L135 453 L55 453 L55 0 L146 0 L146 310 C146 351 182 385 246 385 C312 385 346 355 346 310 L346 0 L437 0 L437 310 C437 351 473 385 537 385 C602 385 636 355 636 310 L636 0 L727 0 Z " />
<glyph glyph-name="n" unicode="n" horiz-adv-x="506" d="M451 0 L451 300 C451 401 378 464 279 464 C208 464 174 446 139 408 L135 453 L55 453 L55 0 L146 0 L146 291 C146 338 182 386 255 386 C331 386 360 338 360 291 L360 0 L451 0 Z " />
<glyph glyph-name="o" unicode="o" horiz-adv-x="551" d="M516 226 C516 367 411 464 276 464 C141 464 35 367 35 226 C35 86 141 -11 276 -11 C411 -11 516 86 516 226 L516 226 Z M424 226 C424 132 355 69 276 69 C196 69 127 132 127 226 C127 321 196 384 276 384 C355 384 424 321 424 226 L424 226 Z " />
<glyph glyph-name="p" unicode="p" horiz-adv-x="538" d="M503 227 C503 384 378 464 281 464 C219 464 169 447 141 417 L138 453 L60 453 L60 -231 L151 -231 L151 19 C174 4 215 -11 264 -11 C399 -11 503 87 503 227 L503 227 Z M411 227 C411 132 345 69 264 69 C216 69 175 88 151 111 L151 338 C175 365 215 384 264 384 C345 384 411 321 411 227 L411 227 Z " />
<glyph glyph-name="q" unicode="q" horiz-adv-x="512" d="M452 -231 L452 462 L430 462 L390 439 C362 452 316 464 276 464 C150 464 35 379 35 230 C35 80 153 -11 282 -11 C317 -11 342 -4 361 4 L361 -231 L452 -231 Z M361 89 C338 76 314 69 282 69 C205 69 127 128 127 230 C127 324 196 384 276 384 C313 384 343 374 361 363 L361 89 Z " />
<glyph glyph-name="r" unicode="r" horiz-adv-x="341" d="M326 382 L309 459 C241 459 179 438 155 382 L151 453 L65 453 L65 0 L156 0 L156 214 C156 343 244 382 317 382 C320 382 322 382 326 382 L326 382 Z " />
<glyph glyph-name="s" unicode="s" horiz-adv-x="375" d="M340 124 C340 203 289 244 198 277 C153 293 132 308 132 337 C132 367 157 388 195 388 C244 388 277 373 297 359 L314 435 C297 446 248 464 196 464 C106 464 44 410 44 334 C44 261 94 219 184 186 C226 171 249 152 249 120 C249 89 220 66 177 66 C122 66 64 90 27 122 L48 22 C75 4 122 -11 175 -11 C285 -11 340 51 340 124 L340 124 Z " />
<glyph glyph-name="t" unicode="t" horiz-adv-x="360" d="M348 453 L188 453 L188 592 L98 545 L98 453 L9 453 L9 380 L98 380 L98 131 C98 41 164 -7 246 -7 C264 -7 277 -6 287 -3 L305 78 C291 73 274 71 255 71 C218 71 188 91 188 128 L188 380 L332 380 L348 453 Z " />
<glyph glyph-name="u" unicode="u" horiz-adv-x="506" d="M451 0 L451 453 L360 453 L360 162 C360 115 324 67 251 67 C175 67 146 115 146 162 L146 453 L55 453 L55 153 C55 52 128 -11 227 -11 C298 -11 332 7 367 45 L371 0 L451 0 Z " />
<glyph glyph-name="v" unicode="v" horiz-adv-x="466" d="M441 453 L356 453 L275 253 C263 224 249 188 238 154 L236 154 C225 188 211 224 199 253 L117 453 L25 453 L214 -8 L251 -8 L441 453 Z " />
<glyph glyph-name="w" unicode="w" horiz-adv-x="709" d="M679 453 L597 453 L526 261 C516 233 504 200 494 166 L492 166 C482 200 473 229 461 261 L389 453 L323 453 L252 261 C241 232 230 196 220 166 L218 166 C209 197 198 230 187 261 L116 453 L30 453 L201 -8 L234 -8 L316 212 C328 243 341 281 353 322 L355 322 C367 282 380 244 393 210 L475 -8 L508 -8 L679 453 Z " />
<glyph glyph-name="x" unicode="x" horiz-adv-x="445" d="M415 0 L275 233 L408 453 L310 453 L252 354 C242 337 233 321 224 305 L222 305 C213 322 204 338 195 354 L137 453 L36 453 L170 229 L30 0 L128 0 L190 104 C198 118 211 139 220 157 L222 157 C231 139 242 119 251 104 L313 0 L415 0 Z " />
<glyph glyph-name="y" unicode="y" horiz-adv-x="479" d="M454 453 L367 453 L282 244 C270 214 256 180 244 145 L242 145 C229 182 215 218 203 247 L119 453 L25 453 L194 40 C141 -90 84 -149 1 -180 L56 -236 C145 -196 219 -123 287 44 L454 453 Z " />
<glyph glyph-name="z" unicode="z" horiz-adv-x="420" d="M390 0 L390 76 L165 76 L164 77 C190 120 213 157 235 196 L372 435 L372 453 L42 453 L42 377 L234 377 L235 376 C213 342 185 294 164 257 L28 18 L28 0 L390 0 Z " />
<glyph glyph-name="braceleft" unicode="&#x7b;" horiz-adv-x="348" d="M318 -149 C236 -149 200 -85 200 31 C200 120 178 188 123 240 C178 294 200 360 200 449 C200 565 236 629 318 629 L302 699 C166 699 111 590 111 453 C111 359 88 283 20 240 C88 198 111 122 111 28 C111 -110 166 -219 302 -219 L318 -149 Z " />
<glyph glyph-name="bar" unicode="&#x7c;" horiz-adv-x="238" d="M158 -231 L158 712 L80 712 L80 -231 L158 -231 Z " />
<glyph glyph-name="braceright" unicode="&#x7d;" horiz-adv-x="348" d="M328 240 C260 283 237 359 237 453 C237 590 182 699 46 699 L30 629 C112 629 148 565 148 449 C148 360 170 294 225 240 C170 188 148 120 148 31 C148 -85 112 -149 30 -149 L46 -219 C182 -219 237 -110 237 28 C237 122 260 198 328 240 L328 240 Z " />
<glyph glyph-name="asciitilde" unicode="&#x7e;" horiz-adv-x="400" d="M342 325 C306 304 266 288 229 282 L214 345 C161 341 125 323 78 297 L60 225 C97 247 137 262 173 267 L188 206 C241 210 278 224 324 255 L342 325 Z " />
<glyph glyph-name="nbspace" unicode="&#xa0;" horiz-adv-x="115" d="" />
<glyph glyph-name="exclamdown" unicode="&#xa1;" horiz-adv-x="267" d="M191 590 C191 610 150 651 130 651 C110 651 69 610 69 590 C69 571 110 530 130 530 C150 530 191 571 191 590 L191 590 Z M187 -42 L171 460 L96 477 L80 -42 L187 -42 Z " />
<glyph glyph-name="cent" unicode="&#xa2;" horiz-adv-x="458" d="M426 608 C393 626 354 638 306 641 L306 737 L249 737 L249 640 C137 626 35 540 35 404 C35 269 137 183 249 169 L249 82 L306 82 L306 168 C341 170 373 178 400 190 L419 279 C368 255 331 247 289 247 C206 247 127 307 127 404 C127 502 204 562 287 562 C331 562 368 554 409 528 L426 608 Z " />
<glyph glyph-name="sterling" unicode="&#xa3;" horiz-adv-x="418" d="M395 68 C347 83 289 89 244 89 C208 89 176 86 155 83 C170 111 182 166 182 244 L182 291 L320 291 L326 348 L182 348 L182 454 C182 514 216 571 278 571 C305 571 333 566 356 555 L372 632 C348 642 322 647 295 647 C164 647 92 574 92 426 L92 348 L15 348 L15 291 L92 291 L92 252 C92 148 70 79 35 29 L103 -7 C135 4 185 13 241 13 C295 13 342 5 384 -11 L395 68 Z " />
<glyph glyph-name="currency" unicode="&#xa4;" horiz-adv-x="484" d="M444 111 L379 176 C400 204 412 239 412 277 C412 314 401 348 381 376 L444 440 L404 480 L340 416 C312 436 278 447 242 447 C204 447 169 435 141 414 L77 478 L37 437 C37 437 102 372 101 372 C83 345 72 312 72 277 C72 241 83 207 103 179 L38 114 L78 73 L143 138 C171 119 205 107 242 107 C277 107 310 118 338 136 L403 71 L444 111 Z M360 277 C360 212 307 160 242 160 C177 160 126 212 126 277 C126 341 177 393 242 393 C307 393 360 341 360 277 L360 277 Z " />
<glyph glyph-name="yen" unicode="&#xa5;" horiz-adv-x="604" d="M594 638 L497 638 L369 458 C352 433 326 396 308 368 L306 368 C288 396 265 431 246 458 L118 638 L10 638 L185 391 L118 391 L118 334 L227 334 L254 293 L254 277 L118 277 L118 220 L254 220 L254 0 L349 0 L349 220 L484 220 L484 277 L349 277 L349 295 L377 334 L484 334 L484 391 L418 391 L594 638 Z " />
<glyph glyph-name="brokenbar" unicode="&#xa6;" horiz-adv-x="238" d="M158 300 L158 712 L80 712 L80 300 L158 300 Z M158 -231 L158 181 L80 181 L80 -231 L158 -231 Z " />
<glyph glyph-name="section" unicode="&#xa7;" horiz-adv-x="465" d="M413 -53 C413 -15 400 22 383 43 L413 174 L170 428 C157 442 149 469 149 481 C149 529 185 568 252 568 C302 568 340 556 377 532 L395 615 C359 635 318 649 250 649 C129 649 59 567 59 481 C59 444 72 406 89 385 L59 254 L303 0 C321 -19 324 -42 324 -53 C324 -101 288 -140 221 -140 C171 -140 133 -126 95 -104 L79 -186 C114 -207 155 -221 223 -221 C345 -221 413 -139 413 -53 L413 -53 Z M353 135 L338 68 L119 295 L133 361 L353 135 Z " />
<glyph glyph-name="dieresis" unicode="&#xa8;" horiz-adv-x="400" d="M328 566 C328 584 294 619 276 619 C258 619 224 584 224 566 C224 550 258 514 276 514 C294 514 328 550 328 566 L328 566 Z M175 566 C175 584 141 619 123 619 C107 619 71 584 71 566 C71 550 107 514 123 514 C141 514 175 550 175 566 L175 566 Z " />
<glyph glyph-name="copyright" unicode="&#xa9;" horiz-adv-x="600" d="M565 250 C565 405 449 513 300 513 C152 513 35 405 35 250 C35 96 152 -13 300 -13 C449 -13 565 96 565 250 L565 250 Z M509 250 C509 130 423 38 300 38 C176 38 91 130 91 250 C91 370 176 462 300 462 C423 462 509 370 509 250 L509 250 Z M411 361 C390 377 360 389 319 389 C245 389 171 334 171 248 C171 159 245 105 319 105 C347 105 372 114 390 124 L405 199 C370 174 346 170 322 170 C281 170 245 199 245 248 C245 296 281 322 322 322 C348 322 377 316 400 301 L411 361 Z " />
<glyph glyph-name="ordfeminine" unicode="&#xaa;" horiz-adv-x="374" d="M366 324 C335 329 320 345 320 376 L320 519 C320 606 259 651 177 651 C132 651 89 642 54 619 L71 552 C101 572 138 582 173 582 C221 582 239 558 239 529 L239 509 L152 501 C93 496 35 449 35 387 C35 326 82 271 156 271 C194 271 230 284 256 313 C266 293 285 276 312 271 L366 324 Z M241 151 C241 169 207 204 189 204 C173 204 137 169 137 151 C137 135 173 99 189 99 C207 99 241 135 241 151 L241 151 Z M239 416 C239 366 195 333 159 333 C132 333 113 356 113 381 C113 407 131 434 165 438 L239 446 L239 416 Z " />
<glyph glyph-name="guillemotleft" unicode="&#xab;" horiz-adv-x="440" d="M419 158 C396 202 368 239 329 277 C368 315 396 353 419 396 L367 448 C327 382 274 325 208 277 C274 231 327 172 367 106 L419 158 Z M209 158 C187 202 157 239 119 277 C157 315 187 353 209 396 L157 448 C117 382 65 325 -1 277 C65 231 117 172 157 106 L209 158 Z " />
<glyph glyph-name="logicalnot" unicode="&#xac;" horiz-adv-x="500" d="M440 135 L440 316 L40 316 L40 238 L360 238 L360 135 L440 135 Z " />
<glyph glyph-name="registered" unicode="&#xae;" horiz-adv-x="480" d="M445 448 C445 567 354 651 240 651 C124 651 35 567 35 448 C35 329 124 245 240 245 C354 245 445 329 445 448 L445 448 Z M399 448 C399 352 330 286 240 286 C148 286 79 352 79 448 C79 544 148 610 240 610 C330 610 399 544 399 448 L399 448 Z M346 349 L287 434 C308 446 323 468 323 497 C323 544 282 573 241 573 L163 573 L163 323 L211 323 L211 421 L241 421 L306 322 L346 349 Z M275 497 C275 476 260 463 234 463 L211 463 L211 531 L234 531 C260 531 275 518 275 497 L275 497 Z " />
<glyph glyph-name="macron" unicode="&#xaf;" horiz-adv-x="400" d="M292 525 L292 602 L108 602 L108 525 L292 525 Z " />
<glyph glyph-name="degree" unicode="&#xb0;" horiz-adv-x="249" d="M228 552 C228 608 181 654 125 654 C69 654 22 608 22 552 C22 496 69 450 125 450 C181 450 228 496 228 552 L228 552 Z M177 552 C177 521 156 500 125 500 C94 500 73 521 73 552 C73 583 94 604 125 604 C156 604 177 583 177 552 L177 552 Z " />
<glyph glyph-name="plusminus" unicode="&#xb1;" horiz-adv-x="885" d="M849 47 C820 52 788 80 788 122 L788 671 C745 704 696 716 635 716 C501 716 402 629 402 472 L402 453 L178 453 L178 507 C178 567 211 624 273 624 C316 624 353 610 372 598 L390 674 C364 689 331 700 283 700 C160 700 87 621 87 487 L87 453 L10 453 L10 380 L87 380 L87 0 L178 0 L178 380 L402 380 L402 0 L493 0 L493 380 L578 380 L594 453 L493 453 L493 492 C493 586 551 640 621 640 C657 640 678 637 697 628 L697 110 C697 23 757 -7 787 -15 L849 47 Z " />
<glyph glyph-name="twosuperior" unicode="&#xb2;" horiz-adv-x="371" d="M316 249 L316 303 L164 303 C244 375 295 454 295 516 C295 597 244 651 143 651 C101 651 62 640 36 624 L48 570 C76 586 106 597 143 597 C198 597 231 568 231 518 C231 462 166 376 33 265 L33 249 L316 249 Z " />
<glyph glyph-name="threesuperior" unicode="&#xb3;" horiz-adv-x="312" d="M271 377 C271 436 227 474 191 484 C218 496 238 524 238 556 C238 615 192 651 125 651 C94 651 66 644 41 631 L53 577 C77 590 101 597 125 597 C152 597 174 581 174 556 C174 530 139 502 99 495 L111 441 C118 443 127 444 131 444 C176 444 207 415 207 377 C207 328 166 297 122 297 C98 297 63 303 34 323 L48 261 C67 249 96 243 122 243 C219 243 271 306 271 377 L271 377 Z " />
<glyph glyph-name="acute" unicode="&#xb4;" horiz-adv-x="400" d="M305 586 L286 668 C231 617 151 581 88 563 L138 514 C201 531 248 547 305 586 L305 586 Z " />
<glyph glyph-name="mu" unicode="&#xb5;" horiz-adv-x="550" d="M511 0 L511 453 L39 453 L39 0 L511 0 Z M482 29 L300 29 C269 46 248 70 248 112 C248 147 281 191 339 214 L98 384 L482 384 L482 29 Z M257 29 L68 29 L68 361 L197 90 C208 67 224 43 257 29 L257 29 Z " />
<glyph glyph-name="paragraph" unicode="&#xb6;" horiz-adv-x="440" d="M412 569 L412 643 L242 643 C136 643 39 581 39 460 C39 340 136 279 241 279 L250 279 L250 -42 C250 -120 211 -161 152 -174 L210 -231 C275 -216 342 -144 342 -49 L342 569 L412 569 Z " />
<glyph glyph-name="periodcentered" unicode="&#xb7;" horiz-adv-x="197" d="M159 271 C159 290 118 331 98 331 C78 331 37 290 37 271 C37 251 78 210 98 210 C118 210 159 251 159 271 L159 271 Z " />
<glyph glyph-name="cedilla" unicode="&#xb8;" horiz-adv-x="400" d="M298 -128 C298 -68 246 -28 200 -27 L204 0 L166 0 L150 -86 C161 -82 172 -83 182 -83 C209 -83 235 -102 235 -131 C235 -158 213 -177 189 -177 C164 -177 146 -173 121 -155 L110 -206 C134 -222 157 -231 188 -231 C241 -231 298 -196 298 -128 L298 -128 Z " />
<glyph glyph-name="onesuperior" unicode="&#xb9;" horiz-adv-x="269" d="M183 249 L183 651 L51 638 L37 578 L119 586 L119 249 L183 249 Z " />
<glyph glyph-name="ordmasculine" unicode="&#xba;" horiz-adv-x="455" d="M422 461 C422 574 338 651 228 651 C118 651 33 574 33 461 C33 349 118 271 228 271 C338 271 422 349 422 461 L422 461 Z M279 151 C279 169 245 204 227 204 C211 204 175 169 175 151 C175 135 211 99 227 99 C245 99 279 135 279 151 L279 151 Z M342 461 C342 388 289 338 228 338 C166 338 113 388 113 461 C113 535 166 584 228 584 C289 584 342 535 342 461 L342 461 Z " />
<glyph glyph-name="guillemotright" unicode="&#xbb;" horiz-adv-x="440" d="M441 277 C376 325 323 382 283 448 L231 396 C253 353 282 315 320 277 C282 239 253 202 231 158 L283 106 C323 172 376 231 441 277 L441 277 Z M232 277 C166 325 113 382 73 448 L21 396 C43 353 72 315 111 277 C72 239 43 202 21 158 L73 106 C113 172 166 231 232 277 L232 277 Z " />
<glyph glyph-name="onequarter" unicode="&#xbc;" horiz-adv-x="743" d="M687 117 L687 171 L634 171 L634 397 L577 397 L388 172 L402 117 L570 117 L570 0 L634 0 L634 117 L687 117 Z M622 625 L587 654 L67 13 L103 -16 L622 625 Z M183 249 L183 651 L51 638 L37 578 L119 586 L119 249 L183 249 Z M573 312 C571 296 570 282 570 265 L570 171 L459 171 L536 264 C550 281 561 296 571 313 L573 312 Z " />
<glyph glyph-name="onehalf" unicode="&#xbd;" horiz-adv-x="798" d="M751 0 L751 54 L599 54 C679 126 730 205 730 267 C730 348 679 402 578 402 C536 402 497 391 471 375 L483 321 C511 337 541 348 578 348 C633 348 666 319 666 269 C666 213 601 127 468 16 L468 0 L751 0 Z M622 625 L587 654 L67 13 L103 -16 L622 625 Z M183 249 L183 651 L51 638 L37 578 L119 586 L119 249 L183 249 Z " />
<glyph glyph-name="threequarters" unicode="&#xbe;" horiz-adv-x="770" d="M727 117 L727 171 L674 171 L674 397 L617 397 L428 172 L442 117 L610 117 L610 0 L674 0 L674 117 L727 117 Z M662 625 L627 654 L107 13 L143 -16 L662 625 Z M271 377 C271 436 227 474 191 484 C218 496 238 524 238 556 C238 615 192 651 125 651 C94 651 66 644 41 631 L53 577 C77 590 101 597 125 597 C152 597 174 581 174 556 C174 530 139 502 99 495 L111 441 C118 443 127 444 131 444 C176 444 207 415 207 377 C207 328 166 297 122 297 C98 297 63 303 34 323 L48 261 C67 249 96 243 122 243 C219 243 271 306 271 377 L271 377 Z M613 312 C611 296 610 282 610 265 L610 171 L499 171 L576 264 C590 281 601 296 611 313 L613 312 Z " />
<glyph glyph-name="questiondown" unicode="&#xbf;" horiz-adv-x="392" d="M275 590 C275 610 234 651 214 651 C193 651 153 610 153 590 C153 571 193 530 214 530 C234 530 275 571 275 590 L275 590 Z M370 -6 L352 77 C320 47 286 27 234 27 C170 27 135 76 135 116 C135 169 159 203 200 246 C240 288 263 349 263 409 C263 431 260 445 256 462 L181 479 C184 464 184 448 184 421 C184 383 170 343 133 303 C78 243 40 194 40 127 C40 13 122 -53 235 -53 C291 -53 340 -35 370 -6 L370 -6 Z " />
<glyph glyph-name="Agrave" unicode="&#xc0;" horiz-adv-x="619" d="M599 0 L327 647 L292 647 L20 0 L115 0 L184 165 L432 165 L501 0 L599 0 Z M399 242 L217 242 L280 398 C289 419 300 449 307 476 L309 476 C317 449 327 419 336 398 L399 242 Z M383 763 C320 781 240 817 186 868 L166 786 C223 747 270 731 333 714 L383 763 Z " />
<glyph glyph-name="Aacute" unicode="&#xc1;" horiz-adv-x="619" d="M599 0 L327 647 L292 647 L20 0 L115 0 L184 165 L432 165 L501 0 L599 0 Z M399 242 L217 242 L280 398 C289 419 300 449 307 476 L309 476 C317 449 327 419 336 398 L399 242 Z M449 786 L430 868 C375 817 295 781 232 763 L282 714 C345 731 392 747 449 786 L449 786 Z " />
<glyph glyph-name="Acircumflex" unicode="&#xc2;" horiz-adv-x="619" d="M599 0 L327 647 L292 647 L20 0 L115 0 L184 165 L432 165 L501 0 L599 0 Z M399 242 L217 242 L280 398 C289 419 300 449 307 476 L309 476 C317 449 327 419 336 398 L399 242 Z M442 761 C389 783 344 826 311 874 C277 826 232 783 179 761 L227 714 C259 729 284 744 311 772 C337 744 362 729 394 714 L442 761 Z " />
<glyph glyph-name="Atilde" unicode="&#xc3;" horiz-adv-x="619" d="M599 0 L327 647 L292 647 L20 0 L115 0 L184 165 L432 165 L501 0 L599 0 Z M399 242 L217 242 L280 398 C289 419 300 449 307 476 L309 476 C317 449 327 419 336 398 L399 242 Z M450 833 C414 812 374 796 337 790 L322 853 C269 849 233 831 186 805 L168 733 C205 755 245 770 281 775 L296 714 C349 718 386 732 432 763 L450 833 Z " />
<glyph glyph-name="Adieresis" unicode="&#xc4;" horiz-adv-x="619" d="M599 0 L327 647 L292 647 L20 0 L115 0 L184 165 L432 165 L501 0 L599 0 Z M399 242 L217 242 L280 398 C289 419 300 449 307 476 L309 476 C317 449 327 419 336 398 L399 242 Z M440 766 C440 784 406 819 388 819 C370 819 336 784 336 766 C336 750 370 714 388 714 C406 714 440 750 440 766 L440 766 Z M287 766 C287 784 253 819 235 819 C219 819 183 784 183 766 C183 750 219 714 235 714 C253 714 287 750 287 766 L287 766 Z " />
<glyph glyph-name="Aring" unicode="&#xc5;" horiz-adv-x="619" d="M599 0 L327 647 L292 647 L20 0 L115 0 L184 165 L432 165 L501 0 L599 0 Z M399 242 L217 242 L280 398 C289 419 300 449 307 476 L309 476 C317 449 327 419 336 398 L399 242 Z M424 817 C424 879 372 930 310 930 C248 930 196 879 196 817 C196 755 248 704 310 704 C372 704 424 755 424 817 L424 817 Z M368 817 C368 783 344 759 310 759 C276 759 252 783 252 817 C252 851 276 875 310 875 C344 875 368 851 368 817 L368 817 Z " />
<glyph glyph-name="AE" unicode="&#xc6;" horiz-adv-x="814" d="M793 0 L793 83 L511 83 L511 279 L718 279 L718 362 L511 362 L511 555 L758 555 L758 638 L380 638 L10 0 L107 0 L203 165 L415 165 L415 0 L793 0 Z M416 556 C416 516 415 495 415 451 L415 242 L243 242 L361 449 C380 482 399 521 414 557 L416 556 Z " />
<glyph glyph-name="Ccedilla" unicode="&#xc7;" horiz-adv-x="600" d="M572 609 C533 631 472 651 384 651 C225 651 40 540 40 319 C40 119 194 8 344 -10 L330 -86 C341 -82 352 -83 362 -83 C389 -83 415 -102 415 -131 C415 -158 393 -177 369 -177 C344 -177 326 -173 301 -155 L290 -206 C314 -222 337 -231 368 -231 C421 -231 478 -196 478 -128 C478 -68 426 -28 380 -27 L382 -12 C465 -12 511 -2 551 19 L571 112 C531 88 471 72 395 72 C267 72 138 154 138 319 C138 486 270 567 395 567 C461 567 524 545 555 525 L572 609 Z " />
<glyph glyph-name="Egrave" unicode="&#xc8;" horiz-adv-x="465" d="M444 0 L444 83 L162 83 L162 279 L369 279 L369 362 L162 362 L162 555 L409 555 L409 638 L65 638 L65 0 L444 0 Z M320 763 C257 781 177 817 123 868 L103 786 C160 747 207 731 270 714 L320 763 Z " />
<glyph glyph-name="Eacute" unicode="&#xc9;" horiz-adv-x="465" d="M444 0 L444 83 L162 83 L162 279 L369 279 L369 362 L162 362 L162 555 L409 555 L409 638 L65 638 L65 0 L444 0 Z M388 786 L369 868 C314 817 234 781 171 763 L221 714 C284 731 331 747 388 786 L388 786 Z " />
<glyph glyph-name="Ecircumflex" unicode="&#xca;" horiz-adv-x="465" d="M444 0 L444 83 L162 83 L162 279 L369 279 L369 362 L162 362 L162 555 L409 555 L409 638 L65 638 L65 0 L444 0 Z M383 761 C330 783 285 826 252 874 C218 826 173 783 120 761 L168 714 C200 729 225 744 252 772 C278 744 303 729 335 714 L383 761 Z " />
<glyph glyph-name="Edieresis" unicode="&#xcb;" horiz-adv-x="465" d="M444 0 L444 83 L162 83 L162 279 L369 279 L369 362 L162 362 L162 555 L409 555 L409 638 L65 638 L65 0 L444 0 Z M376 766 C376 784 342 819 324 819 C306 819 272 784 272 766 C272 750 306 714 324 714 C342 714 376 750 376 766 L376 766 Z M223 766 C223 784 189 819 171 819 C155 819 119 784 119 766 C119 750 155 714 171 714 C189 714 223 750 223 766 L223 766 Z " />
<glyph glyph-name="Igrave" unicode="&#xcc;" horiz-adv-x="257" d="M177 0 L177 638 L80 638 L80 0 L177 0 Z M217 763 C154 781 74 817 20 868 L0 786 C57 747 104 731 167 714 L217 763 Z " />
<glyph glyph-name="Iacute" unicode="&#xcd;" horiz-adv-x="257" d="M177 0 L177 638 L80 638 L80 0 L177 0 Z M257 786 L238 868 C183 817 103 781 40 763 L90 714 C153 731 200 747 257 786 L257 786 Z " />
<glyph glyph-name="Icircumflex" unicode="&#xce;" horiz-adv-x="257" d="M177 0 L177 638 L80 638 L80 0 L177 0 Z M260 761 C207 783 162 826 129 874 C95 826 50 783 -3 761 L45 714 C77 729 102 744 129 772 C155 744 180 729 212 714 L260 761 Z " />
<glyph glyph-name="Idieresis" unicode="&#xcf;" horiz-adv-x="257" d="M177 0 L177 638 L80 638 L80 0 L177 0 Z M258 766 C258 784 224 819 206 819 C188 819 154 784 154 766 C154 750 188 714 206 714 C224 714 258 750 258 766 L258 766 Z M105 766 C105 784 71 819 53 819 C37 819 1 784 1 766 C1 750 37 714 53 714 C71 714 105 750 105 766 L105 766 Z " />
<glyph glyph-name="Eth" unicode="&#xd0;" horiz-adv-x="656" d="M616 319 C616 525 449 638 271 638 L75 638 L75 362 L-3 362 L-3 289 L75 289 L75 0 L271 0 C449 0 616 113 616 319 L616 319 Z M517 319 C517 157 398 82 254 82 L171 82 L171 289 L282 289 L297 362 L171 362 L171 556 L254 556 C398 556 517 481 517 319 L517 319 Z " />
<glyph glyph-name="Ntilde" unicode="&#xd1;" horiz-adv-x="702" d="M637 -14 L637 638 L540 638 L540 336 C540 290 540 235 542 186 L540 185 C501 233 443 297 406 338 L132 638 L65 638 L65 0 L162 0 L162 320 C162 368 162 422 160 480 L162 481 C206 429 261 365 309 313 L608 -14 L637 -14 Z M491 833 C455 812 415 796 378 790 L363 853 C310 849 274 831 227 805 L209 733 C246 755 286 770 322 775 L337 714 C390 718 427 732 473 763 L491 833 Z " />
<glyph glyph-name="Ograve" unicode="&#xd2;" horiz-adv-x="756" d="M716 320 C716 525 548 651 378 651 C208 651 40 525 40 320 C40 113 208 -12 378 -12 C548 -12 716 113 716 320 L716 320 Z M618 320 C618 162 494 72 378 72 C260 72 138 162 138 320 C138 478 260 567 378 567 C494 567 618 478 618 320 L618 320 Z M444 763 C381 781 301 817 247 868 L227 786 C284 747 331 731 394 714 L444 763 Z " />
<glyph glyph-name="Oacute" unicode="&#xd3;" horiz-adv-x="756" d="M716 320 C716 525 548 651 378 651 C208 651 40 525 40 320 C40 113 208 -12 378 -12 C548 -12 716 113 716 320 L716 320 Z M618 320 C618 162 494 72 378 72 C260 72 138 162 138 320 C138 478 260 567 378 567 C494 567 618 478 618 320 L618 320 Z M514 786 L495 868 C440 817 360 781 297 763 L347 714 C410 731 457 747 514 786 L514 786 Z " />
<glyph glyph-name="Ocircumflex" unicode="&#xd4;" horiz-adv-x="756" d="M716 320 C716 525 548 651 378 651 C208 651 40 525 40 320 C40 113 208 -12 378 -12 C548 -12 716 113 716 320 L716 320 Z M618 320 C618 162 494 72 378 72 C260 72 138 162 138 320 C138 478 260 567 378 567 C494 567 618 478 618 320 L618 320 Z M511 761 C458 783 413 826 380 874 C346 826 301 783 248 761 L296 714 C328 729 353 744 380 772 C406 744 431 729 463 714 L511 761 Z " />
<glyph glyph-name="Otilde" unicode="&#xd5;" horiz-adv-x="756" d="M716 320 C716 525 548 651 378 651 C208 651 40 525 40 320 C40 113 208 -12 378 -12 C548 -12 716 113 716 320 L716 320 Z M618 320 C618 162 494 72 378 72 C260 72 138 162 138 320 C138 478 260 567 378 567 C494 567 618 478 618 320 L618 320 Z M514 833 C478 812 438 796 401 790 L386 853 C333 849 297 831 250 805 L232 733 C269 755 309 770 345 775 L360 714 C413 718 450 732 496 763 L514 833 Z " />
<glyph glyph-name="Odieresis" unicode="&#xd6;" horiz-adv-x="756" d="M716 320 C716 525 548 651 378 651 C208 651 40 525 40 320 C40 113 208 -12 378 -12 C548 -12 716 113 716 320 L716 320 Z M618 320 C618 162 494 72 378 72 C260 72 138 162 138 320 C138 478 260 567 378 567 C494 567 618 478 618 320 L618 320 Z M508 766 C508 784 474 819 456 819 C438 819 404 784 404 766 C404 750 438 714 456 714 C474 714 508 750 508 766 L508 766 Z M355 766 C355 784 321 819 303 819 C287 819 251 784 251 766 C251 750 287 714 303 714 C321 714 355 750 355 766 L355 766 Z " />
<glyph glyph-name="multiply" unicode="&#xd7;" horiz-adv-x="468" d="M397 153 L278 272 L396 390 L354 432 L236 314 L118 433 L75 390 L193 272 L74 153 L117 110 L236 229 L355 111 L397 153 Z " />
<glyph glyph-name="Oslash" unicode="&#xd8;" horiz-adv-x="756" d="M716 320 C716 423 674 504 611 562 L669 633 L625 670 L566 596 C510 632 444 651 378 651 C208 651 40 525 40 320 C40 217 82 133 145 76 L88 5 L132 -32 L191 42 C247 7 312 -12 378 -12 C548 -12 716 113 716 320 L716 320 Z M618 320 C618 162 494 72 378 72 C333 72 287 86 247 111 L554 491 C593 449 618 392 618 320 L618 320 Z M510 527 L203 148 C163 190 138 247 138 320 C138 478 260 567 378 567 C424 567 470 553 510 527 L510 527 Z " />
<glyph glyph-name="Ugrave" unicode="&#xd9;" horiz-adv-x="650" d="M585 225 L585 638 L491 638 L491 235 C491 140 437 74 326 74 C215 74 162 140 162 235 L162 638 L65 638 L65 225 C65 76 176 -12 325 -12 C474 -12 585 76 585 225 L585 225 Z M391 763 C328 781 248 817 194 868 L174 786 C231 747 278 731 341 714 L391 763 Z " />
<glyph glyph-name="Uacute" unicode="&#xda;" horiz-adv-x="650" d="M585 225 L585 638 L491 638 L491 235 C491 140 437 74 326 74 C215 74 162 140 162 235 L162 638 L65 638 L65 225 C65 76 176 -12 325 -12 C474 -12 585 76 585 225 L585 225 Z M475 786 L456 868 C401 817 321 781 258 763 L308 714 C371 731 418 747 475 786 L475 786 Z " />
<glyph glyph-name="Ucircumflex" unicode="&#xdb;" horiz-adv-x="650" d="M585 225 L585 638 L491 638 L491 235 C491 140 437 74 326 74 C215 74 162 140 162 235 L162 638 L65 638 L65 225 C65 76 176 -12 325 -12 C474 -12 585 76 585 225 L585 225 Z M456 761 C403 783 358 826 325 874 C291 826 246 783 193 761 L241 714 C273 729 298 744 325 772 C351 744 376 729 408 714 L456 761 Z " />
<glyph glyph-name="Udieresis" unicode="&#xdc;" horiz-adv-x="650" d="M585 225 L585 638 L491 638 L491 235 C491 140 437 74 326 74 C215 74 162 140 162 235 L162 638 L65 638 L65 225 C65 76 176 -12 325 -12 C474 -12 585 76 585 225 L585 225 Z M456 766 C456 784 422 819 404 819 C386 819 352 784 352 766 C352 750 386 714 404 714 C422 714 456 750 456 766 L456 766 Z M303 766 C303 784 269 819 251 819 C235 819 199 784 199 766 C199 750 235 714 251 714 C269 714 303 750 303 766 L303 766 Z " />
<glyph glyph-name="Yacute" unicode="&#xdd;" horiz-adv-x="604" d="M594 638 L495 638 L367 458 C350 433 324 396 306 368 L304 368 C286 396 263 431 244 458 L116 638 L10 638 L254 294 L254 0 L349 0 L349 294 L594 638 Z M438 786 L419 868 C364 817 284 781 221 763 L271 714 C334 731 381 747 438 786 L438 786 Z " />
<glyph glyph-name="Thorn" unicode="&#xde;" horiz-adv-x="467" d="M449 385 C449 506 347 564 257 564 L161 564 L161 638 L65 638 L65 0 L161 0 L161 206 L257 206 C347 206 449 264 449 385 L449 385 Z M350 385 C350 318 297 288 240 288 L161 288 L161 482 L240 482 C297 482 350 451 350 385 L350 385 Z " />
<glyph glyph-name="germandbls" unicode="&#xdf;" horiz-adv-x="535" d="M500 124 C500 203 449 244 358 277 C313 293 292 308 292 337 C292 379 343 398 428 398 C436 425 445 470 445 507 C445 650 358 716 255 716 C150 716 65 648 65 481 L65 0 L156 0 L156 505 C156 578 190 640 255 640 C320 640 356 579 356 521 C356 501 352 481 348 464 C268 464 204 410 204 334 C204 261 254 219 344 186 C386 171 409 152 409 120 C409 89 380 66 337 66 C282 66 237 86 204 110 L204 23 C231 5 282 -11 335 -11 C445 -11 500 51 500 124 L500 124 Z " />
<glyph glyph-name="agrave" unicode="&#xe0;" horiz-adv-x="456" d="M432 47 C403 52 381 76 381 117 L381 300 C381 407 308 464 207 464 C152 464 100 452 59 425 L77 350 C110 372 157 386 202 386 C266 386 290 353 290 312 L290 283 L184 273 C107 266 35 216 35 128 C35 55 91 -11 181 -11 C230 -11 276 5 308 47 C318 19 343 -4 374 -11 L432 47 Z M290 168 C290 111 233 66 185 66 C149 66 122 95 122 127 C122 160 146 195 200 200 L290 208 L290 168 Z M266 570 C213 586 145 616 99 660 L82 590 C131 557 170 543 224 529 L266 570 Z " />
<glyph glyph-name="aacute" unicode="&#xe1;" horiz-adv-x="456" d="M432 47 C403 52 381 76 381 117 L381 300 C381 407 308 464 207 464 C152 464 100 452 59 425 L77 350 C110 372 157 386 202 386 C266 386 290 353 290 312 L290 283 L184 273 C107 266 35 216 35 128 C35 55 91 -11 181 -11 C230 -11 276 5 308 47 C318 19 343 -4 374 -11 L432 47 Z M290 168 C290 111 233 66 185 66 C149 66 122 95 122 127 C122 160 146 195 200 200 L290 208 L290 168 Z M315 590 L299 660 C252 616 184 586 131 570 L173 529 C227 543 267 557 315 590 L315 590 Z " />
<glyph glyph-name="acircumflex" unicode="&#xe2;" horiz-adv-x="456" d="M432 47 C403 52 381 76 381 117 L381 300 C381 407 308 464 207 464 C152 464 100 452 59 425 L77 350 C110 372 157 386 202 386 C266 386 290 353 290 312 L290 283 L184 273 C107 266 35 216 35 128 C35 55 91 -11 181 -11 C230 -11 276 5 308 47 C318 19 343 -4 374 -11 L432 47 Z M290 168 C290 111 233 66 185 66 C149 66 122 95 122 127 C122 160 146 195 200 200 L290 208 L290 168 Z M319 569 C274 588 236 624 208 665 C179 624 141 588 96 569 L137 529 C164 542 185 554 208 578 C230 554 251 542 279 529 L319 569 Z " />
<glyph glyph-name="atilde" unicode="&#xe3;" horiz-adv-x="456" d="M432 47 C403 52 381 76 381 117 L381 300 C381 407 308 464 207 464 C152 464 100 452 59 425 L77 350 C110 372 157 386 202 386 C266 386 290 353 290 312 L290 283 L184 273 C107 266 35 216 35 128 C35 55 91 -11 181 -11 C230 -11 276 5 308 47 C318 19 343 -4 374 -11 L432 47 Z M290 168 C290 111 233 66 185 66 C149 66 122 95 122 127 C122 160 146 195 200 200 L290 208 L290 168 Z M339 630 C308 612 274 599 243 593 L230 647 C185 644 154 628 114 606 L99 545 C130 564 164 576 195 581 L208 529 C253 532 284 544 323 571 L339 630 Z " />
<glyph glyph-name="adieresis" unicode="&#xe4;" horiz-adv-x="456" d="M432 47 C403 52 381 76 381 117 L381 300 C381 407 308 464 207 464 C152 464 100 452 59 425 L77 350 C110 372 157 386 202 386 C266 386 290 353 290 312 L290 283 L184 273 C107 266 35 216 35 128 C35 55 91 -11 181 -11 C230 -11 276 5 308 47 C318 19 343 -4 374 -11 L432 47 Z M290 168 C290 111 233 66 185 66 C149 66 122 95 122 127 C122 160 146 195 200 200 L290 208 L290 168 Z M321 573 C321 588 292 618 277 618 C261 618 232 588 232 573 C232 559 261 529 277 529 C292 529 321 559 321 573 L321 573 Z M191 573 C191 588 162 618 147 618 C133 618 102 588 102 573 C102 559 133 529 147 529 C162 529 191 559 191 573 L191 573 Z " />
<glyph glyph-name="aring" unicode="&#xe5;" horiz-adv-x="456" d="M432 47 C403 52 381 76 381 117 L381 300 C381 407 308 464 207 464 C152 464 100 452 59 425 L77 350 C110 372 157 386 202 386 C266 386 290 353 290 312 L290 283 L184 273 C107 266 35 216 35 128 C35 55 91 -11 181 -11 C230 -11 276 5 308 47 C318 19 343 -4 374 -11 L432 47 Z M290 168 C290 111 233 66 185 66 C149 66 122 95 122 127 C122 160 146 195 200 200 L290 208 L290 168 Z M306 616 C306 669 262 712 209 712 C156 712 112 669 112 616 C112 564 156 520 209 520 C262 520 306 564 306 616 L306 616 Z M258 616 C258 588 238 567 209 567 C180 567 160 588 160 616 C160 645 180 666 209 666 C238 666 258 645 258 616 L258 616 Z " />
<glyph glyph-name="ae" unicode="&#xe6;" horiz-adv-x="746" d="M711 292 C711 376 640 464 515 464 C459 464 399 440 355 395 C325 441 271 464 207 464 C152 464 100 452 59 425 L77 350 C110 372 157 386 202 386 C266 386 290 353 290 312 L290 276 L187 266 C101 258 35 216 35 124 C35 52 89 -11 184 -11 C245 -11 305 15 345 73 C391 20 459 -11 533 -11 C594 -11 635 1 667 18 L690 115 C648 85 603 69 545 69 C439 69 388 148 385 204 L657 204 L708 255 C710 265 711 278 711 292 L711 292 Z M619 290 C619 286 619 282 618 278 L391 278 C402 341 463 386 520 386 C580 386 619 335 619 290 L619 290 Z M290 168 C290 111 233 66 185 66 C149 66 122 92 122 122 C122 160 145 188 203 193 L290 201 L290 168 Z " />
<glyph glyph-name="ccedilla" unicode="&#xe7;" horiz-adv-x="458" d="M426 430 C388 451 341 464 281 464 C157 464 35 375 35 226 C35 93 133 9 243 -8 L230 -73 C240 -70 249 -71 258 -71 C281 -71 303 -87 303 -111 C303 -134 284 -150 264 -150 C242 -150 227 -147 206 -132 L196 -175 C217 -189 236 -196 263 -196 C308 -196 356 -167 356 -109 C356 -58 312 -24 273 -23 L275 -11 C307 -12 363 -6 400 12 L419 101 C368 77 331 69 289 69 C206 69 127 129 127 226 C127 324 204 384 287 384 C331 384 368 376 409 350 L426 430 Z " />
<glyph glyph-name="egrave" unicode="&#xe8;" horiz-adv-x="491" d="M456 292 C456 376 385 464 260 464 C155 464 35 380 35 226 C35 85 149 -11 278 -11 C339 -11 380 1 412 18 L435 115 C393 85 348 69 290 69 C184 69 132 148 129 204 L402 204 L453 255 C455 265 456 278 456 292 L456 292 Z M364 290 C364 286 364 282 363 278 L135 278 C147 341 208 386 265 386 C325 386 364 335 364 290 L364 290 Z M332 570 C279 586 211 616 165 660 L148 590 C197 557 236 543 290 529 L332 570 Z " />
<glyph glyph-name="eacute" unicode="&#xe9;" horiz-adv-x="491" d="M456 292 C456 376 385 464 260 464 C155 464 35 380 35 226 C35 85 149 -11 278 -11 C339 -11 380 1 412 18 L435 115 C393 85 348 69 290 69 C184 69 132 148 129 204 L402 204 L453 255 C455 265 456 278 456 292 L456 292 Z M364 290 C364 286 364 282 363 278 L135 278 C147 341 208 386 265 386 C325 386 364 335 364 290 L364 290 Z M377 590 L361 660 C314 616 246 586 193 570 L235 529 C289 543 329 557 377 590 L377 590 Z " />
<glyph glyph-name="ecircumflex" unicode="&#xea;" horiz-adv-x="491" d="M456 292 C456 376 385 464 260 464 C155 464 35 380 35 226 C35 85 149 -11 278 -11 C339 -11 380 1 412 18 L435 115 C393 85 348 69 290 69 C184 69 132 148 129 204 L402 204 L453 255 C455 265 456 278 456 292 L456 292 Z M364 290 C364 286 364 282 363 278 L135 278 C147 341 208 386 265 386 C325 386 364 335 364 290 L364 290 Z M375 569 C330 588 292 624 264 665 C235 624 197 588 152 569 L193 529 C220 542 241 554 264 578 C286 554 307 542 335 529 L375 569 Z " />
<glyph glyph-name="edieresis" unicode="&#xeb;" horiz-adv-x="491" d="M456 292 C456 376 385 464 260 464 C155 464 35 380 35 226 C35 85 149 -11 278 -11 C339 -11 380 1 412 18 L435 115 C393 85 348 69 290 69 C184 69 132 148 129 204 L402 204 L453 255 C455 265 456 278 456 292 L456 292 Z M364 290 C364 286 364 282 363 278 L135 278 C147 341 208 386 265 386 C325 386 364 335 364 290 L364 290 Z M371 573 C371 588 342 618 327 618 C311 618 282 588 282 573 C282 559 311 529 327 529 C342 529 371 559 371 573 L371 573 Z M241 573 C241 588 212 618 197 618 C183 618 152 588 152 573 C152 559 183 529 197 529 C212 529 241 559 241 573 L241 573 Z " />
<glyph glyph-name="igrave" unicode="&#xec;" horiz-adv-x="242" d="M167 0 L167 453 L75 453 L75 0 L167 0 Z M184 570 C131 586 63 616 17 660 L0 590 C49 557 88 543 142 529 L184 570 Z " />
<glyph glyph-name="iacute" unicode="&#xed;" horiz-adv-x="242" d="M167 0 L167 453 L75 453 L75 0 L167 0 Z M242 590 L226 660 C179 616 111 586 58 570 L100 529 C154 543 194 557 242 590 L242 590 Z " />
<glyph glyph-name="icircumflex" unicode="&#xee;" horiz-adv-x="242" d="M167 0 L167 453 L75 453 L75 0 L167 0 Z M233 569 C188 588 150 624 122 665 C93 624 55 588 10 569 L51 529 C78 542 99 554 122 578 C144 554 165 542 193 529 L233 569 Z " />
<glyph glyph-name="idieresis" unicode="&#xef;" horiz-adv-x="242" d="M167 0 L167 453 L75 453 L75 0 L167 0 Z M230 573 C230 588 201 618 186 618 C170 618 141 588 141 573 C141 559 170 529 186 529 C201 529 230 559 230 573 L230 573 Z M100 573 C100 588 71 618 56 618 C42 618 11 588 11 573 C11 559 42 529 56 529 C71 529 100 559 100 573 L100 573 Z " />
<glyph glyph-name="eth" unicode="&#xf0;" horiz-adv-x="499" d="M459 209 C459 234 451 271 443 290 L324 573 L399 604 L372 672 L295 641 L266 712 L171 712 L214 609 L131 575 L158 507 L243 541 L291 426 C260 421 222 412 190 402 C102 374 35 294 35 196 C35 78 126 -11 248 -11 C363 -11 459 69 459 209 L459 209 Z M368 208 C368 123 314 69 246 69 C178 69 126 122 126 196 C126 262 164 310 232 332 C260 341 296 348 320 351 C337 314 368 242 368 208 L368 208 Z " />
<glyph glyph-name="ntilde" unicode="&#xf1;" horiz-adv-x="506" d="M451 0 L451 300 C451 401 378 464 279 464 C208 464 174 446 139 408 L135 453 L55 453 L55 0 L146 0 L146 291 C146 338 182 386 255 386 C331 386 360 338 360 291 L360 0 L451 0 Z M370 630 C339 612 305 599 274 593 L261 647 C216 644 185 628 145 606 L130 545 C161 564 195 576 226 581 L239 529 C284 532 315 544 354 571 L370 630 Z " />
<glyph glyph-name="ograve" unicode="&#xf2;" horiz-adv-x="551" d="M516 226 C516 367 411 464 276 464 C141 464 35 367 35 226 C35 86 141 -11 276 -11 C411 -11 516 86 516 226 L516 226 Z M424 226 C424 132 355 69 276 69 C196 69 127 132 127 226 C127 321 196 384 276 384 C355 384 424 321 424 226 L424 226 Z M337 570 C284 586 216 616 170 660 L153 590 C202 557 241 543 295 529 L337 570 Z " />
<glyph glyph-name="oacute" unicode="&#xf3;" horiz-adv-x="551" d="M516 226 C516 367 411 464 276 464 C141 464 35 367 35 226 C35 86 141 -11 276 -11 C411 -11 516 86 516 226 L516 226 Z M424 226 C424 132 355 69 276 69 C196 69 127 132 127 226 C127 321 196 384 276 384 C355 384 424 321 424 226 L424 226 Z M407 590 L391 660 C344 616 276 586 223 570 L265 529 C319 543 359 557 407 590 L407 590 Z " />
<glyph glyph-name="ocircumflex" unicode="&#xf4;" horiz-adv-x="551" d="M516 226 C516 367 411 464 276 464 C141 464 35 367 35 226 C35 86 141 -11 276 -11 C411 -11 516 86 516 226 L516 226 Z M424 226 C424 132 355 69 276 69 C196 69 127 132 127 226 C127 321 196 384 276 384 C355 384 424 321 424 226 L424 226 Z M385 569 C340 588 302 624 274 665 C245 624 207 588 162 569 L203 529 C230 542 251 554 274 578 C296 554 317 542 345 529 L385 569 Z " />
<glyph glyph-name="otilde" unicode="&#xf5;" horiz-adv-x="551" d="M516 226 C516 367 411 464 276 464 C141 464 35 367 35 226 C35 86 141 -11 276 -11 C411 -11 516 86 516 226 L516 226 Z M424 226 C424 132 355 69 276 69 C196 69 127 132 127 226 C127 321 196 384 276 384 C355 384 424 321 424 226 L424 226 Z M396 630 C365 612 331 599 300 593 L287 647 C242 644 211 628 171 606 L156 545 C187 564 221 576 252 581 L265 529 C310 532 341 544 380 571 L396 630 Z " />
<glyph glyph-name="odieresis" unicode="&#xf6;" horiz-adv-x="551" d="M516 226 C516 367 411 464 276 464 C141 464 35 367 35 226 C35 86 141 -11 276 -11 C411 -11 516 86 516 226 L516 226 Z M424 226 C424 132 355 69 276 69 C196 69 127 132 127 226 C127 321 196 384 276 384 C355 384 424 321 424 226 L424 226 Z M387 573 C387 588 358 618 343 618 C327 618 298 588 298 573 C298 559 327 529 343 529 C358 529 387 559 387 573 L387 573 Z M257 573 C257 588 228 618 213 618 C199 618 168 588 168 573 C168 559 199 529 213 529 C228 529 257 559 257 573 L257 573 Z " />
<glyph glyph-name="divide" unicode="&#xf7;" horiz-adv-x="454" d="M280 403 C280 420 245 455 227 455 C209 455 174 420 174 403 C174 385 209 350 227 350 C245 350 280 385 280 403 L280 403 Z M414 238 L414 316 L40 316 L40 238 L414 238 Z M280 152 C280 169 245 204 227 204 C209 204 174 169 174 152 C174 134 209 99 227 99 C245 99 280 134 280 152 L280 152 Z " />
<glyph glyph-name="oslash" unicode="&#xf8;" horiz-adv-x="545" d="M516 226 C516 298 489 357 446 398 L488 450 L446 485 L402 431 C366 452 323 464 276 464 C141 464 35 367 35 226 C35 156 61 98 103 56 L60 3 L102 -32 L147 24 C184 1 228 -11 276 -11 C411 -11 516 86 516 226 L516 226 Z M424 226 C424 132 355 69 276 69 C248 69 222 77 199 90 L391 329 C411 302 424 268 424 226 L424 226 Z M349 364 L159 126 C139 153 127 187 127 226 C127 321 196 384 276 384 C302 384 328 376 349 364 L349 364 Z " />
<glyph glyph-name="ugrave" unicode="&#xf9;" horiz-adv-x="506" d="M451 0 L451 453 L360 453 L360 162 C360 115 324 67 251 67 C175 67 146 115 146 162 L146 453 L55 453 L55 153 C55 52 128 -11 227 -11 C298 -11 332 7 367 45 L371 0 L451 0 Z M308 570 C255 586 187 616 141 660 L124 590 C173 557 212 543 266 529 L308 570 Z " />
<glyph glyph-name="uacute" unicode="&#xfa;" horiz-adv-x="506" d="M451 0 L451 453 L360 453 L360 162 C360 115 324 67 251 67 C175 67 146 115 146 162 L146 453 L55 453 L55 153 C55 52 128 -11 227 -11 C298 -11 332 7 367 45 L371 0 L451 0 Z M391 590 L375 660 C328 616 260 586 207 570 L249 529 C303 543 343 557 391 590 L391 590 Z " />
<glyph glyph-name="ucircumflex" unicode="&#xfb;" horiz-adv-x="506" d="M451 0 L451 453 L360 453 L360 162 C360 115 324 67 251 67 C175 67 146 115 146 162 L146 453 L55 453 L55 153 C55 52 128 -11 227 -11 C298 -11 332 7 367 45 L371 0 L451 0 Z M367 569 C322 588 284 624 256 665 C227 624 189 588 144 569 L185 529 C212 542 233 554 256 578 C278 554 299 542 327 529 L367 569 Z " />
<glyph glyph-name="udieresis" unicode="&#xfc;" horiz-adv-x="506" d="M451 0 L451 453 L360 453 L360 162 C360 115 324 67 251 67 C175 67 146 115 146 162 L146 453 L55 453 L55 153 C55 52 128 -11 227 -11 C298 -11 332 7 367 45 L371 0 L451 0 Z M365 573 C365 588 336 618 321 618 C305 618 276 588 276 573 C276 559 305 529 321 529 C336 529 365 559 365 573 L365 573 Z M235 573 C235 588 206 618 191 618 C177 618 146 588 146 573 C146 559 177 529 191 529 C206 529 235 559 235 573 L235 573 Z " />
<glyph glyph-name="yacute" unicode="&#xfd;" horiz-adv-x="479" d="M454 453 L367 453 L282 244 C270 214 256 180 244 145 L242 145 C229 182 215 218 203 247 L119 453 L25 453 L194 40 C141 -90 84 -149 1 -180 L56 -236 C145 -196 219 -123 287 44 L454 453 Z M371 590 L355 660 C308 616 240 586 187 570 L229 529 C283 543 323 557 371 590 L371 590 Z " />
<glyph glyph-name="thorn" unicode="&#xfe;" horiz-adv-x="538" d="M503 227 C503 384 378 464 281 464 C226 464 180 450 151 426 L151 712 L60 712 L60 -231 L151 -231 L151 19 C174 4 215 -11 264 -11 C399 -11 503 87 503 227 L503 227 Z M411 227 C411 132 345 69 264 69 C216 69 175 88 151 111 L151 338 C175 365 215 384 264 384 C345 384 411 321 411 227 L411 227 Z " />
<glyph glyph-name="ydieresis" unicode="&#xff;" horiz-adv-x="479" d="M454 453 L367 453 L282 244 C270 214 256 180 244 145 L242 145 C229 182 215 218 203 247 L119 453 L25 453 L194 40 C141 -90 84 -149 1 -180 L56 -236 C145 -196 219 -123 287 44 L454 453 Z M351 570 C351 585 323 615 307 615 C292 615 263 585 263 570 C263 556 292 526 307 526 C323 526 351 556 351 570 L351 570 Z M221 570 C221 585 193 615 177 615 C164 615 133 585 133 570 C133 556 164 526 177 526 C193 526 221 556 221 570 L221 570 Z " />
<glyph glyph-name="dotlessi" unicode="&#x131;" horiz-adv-x="242" d="M167 0 L167 453 L75 453 L75 0 L167 0 Z " />
<glyph glyph-name="Lslash" unicode="&#x141;" horiz-adv-x="458" d="M453 0 L453 83 L172 83 L172 315 L274 374 L274 459 L172 400 L172 638 L75 638 L75 345 L-6 298 L30 234 L75 260 L75 0 L453 0 Z " />
<glyph glyph-name="lslash" unicode="&#x142;" horiz-adv-x="263" d="M244 361 L244 446 L166 401 L166 712 L75 712 L75 348 L-11 298 L24 234 L75 263 L75 107 C75 20 135 -10 165 -18 L227 44 C199 49 166 77 166 119 L166 316 L244 361 Z " />
<glyph glyph-name="OE" unicode="&#x152;" horiz-adv-x="953" d="M932 0 L932 83 L650 83 L650 279 L857 279 L857 362 L650 362 L650 555 L897 555 L897 638 L554 638 L554 604 C501 634 440 651 378 651 C208 651 40 525 40 320 C40 113 208 -12 378 -12 C440 -12 501 5 554 35 L554 0 L932 0 Z M554 141 C508 99 442 72 378 72 C260 72 138 162 138 320 C138 478 260 567 378 567 C442 567 508 540 554 498 L554 141 Z " />
<glyph glyph-name="oe" unicode="&#x153;" horiz-adv-x="879" d="M844 292 C844 376 773 464 648 464 C584 464 514 432 469 373 C426 430 356 464 276 464 C141 464 35 367 35 226 C35 86 141 -11 276 -11 C357 -11 428 24 471 83 C516 24 587 -11 666 -11 C727 -11 768 1 800 18 L823 115 C781 85 736 69 678 69 C572 69 521 148 518 204 L790 204 L841 255 C843 265 844 278 844 292 L844 292 Z M752 290 C752 286 752 282 751 278 L524 278 C535 341 596 386 653 386 C713 386 752 335 752 290 L752 290 Z M424 226 C424 132 355 69 276 69 C196 69 127 132 127 226 C127 321 196 384 276 384 C355 384 424 321 424 226 L424 226 Z " />
<glyph glyph-name="Scaron" unicode="&#x160;" horiz-adv-x="477" d="M438 180 C438 288 363 347 252 385 C185 408 149 442 149 484 C149 531 189 571 254 571 C306 571 356 550 378 534 L397 614 C374 631 321 651 258 651 C122 651 56 566 56 477 C56 389 116 325 230 288 C307 263 341 226 341 171 C341 112 294 72 223 72 C154 72 92 94 31 137 L53 31 C86 9 149 -12 218 -12 C362 -12 438 66 438 180 L438 180 Z M373 820 L325 867 C293 851 268 836 242 809 C215 836 190 851 158 867 L110 820 C163 798 208 754 242 707 C275 754 320 798 373 820 L373 820 Z " />
<glyph glyph-name="scaron" unicode="&#x161;" horiz-adv-x="375" d="M340 124 C340 203 289 244 198 277 C153 293 132 308 132 337 C132 367 157 388 195 388 C244 388 277 373 297 359 L314 435 C297 446 248 464 196 464 C106 464 44 410 44 334 C44 261 94 219 184 186 C226 171 249 152 249 120 C249 89 220 66 177 66 C122 66 64 90 27 122 L48 22 C75 4 122 -11 175 -11 C285 -11 340 51 340 124 L340 124 Z M300 619 L260 659 C232 645 211 633 189 610 C166 633 145 645 118 659 L77 619 C122 600 160 563 189 523 C217 563 255 600 300 619 L300 619 Z " />
<glyph glyph-name="Ydieresis" unicode="&#x178;" horiz-adv-x="604" d="M594 638 L495 638 L367 458 C350 433 324 396 306 368 L304 368 C286 396 263 431 244 458 L116 638 L10 638 L254 294 L254 0 L349 0 L349 294 L594 638 Z M430 766 C430 784 396 819 378 819 C360 819 326 784 326 766 C326 750 360 714 378 714 C396 714 430 750 430 766 L430 766 Z M277 766 C277 784 243 819 225 819 C209 819 173 784 173 766 C173 750 209 714 225 714 C243 714 277 750 277 766 L277 766 Z " />
<glyph glyph-name="Zcaron" unicode="&#x17d;" horiz-adv-x="508" d="M482 0 L482 81 L164 81 L163 82 C194 133 234 202 267 259 L471 615 L471 638 L46 638 L46 557 L336 557 L337 556 C306 507 265 435 232 378 L30 23 L30 0 L482 0 Z M384 820 L336 867 C304 851 279 836 253 809 C226 836 201 851 169 867 L121 820 C174 798 219 754 253 707 C286 754 331 798 384 820 L384 820 Z " />
<glyph glyph-name="zcaron" unicode="&#x17e;" horiz-adv-x="420" d="M390 0 L390 76 L165 76 L164 77 C190 120 213 157 235 196 L372 435 L372 453 L42 453 L42 377 L234 377 L235 376 C213 342 185 294 164 257 L28 18 L28 0 L390 0 Z M320 619 L280 659 C252 645 231 633 209 610 C186 633 165 645 138 659 L97 619 C142 600 180 563 209 523 C237 563 275 600 320 619 L320 619 Z " />
<glyph glyph-name="florin" unicode="&#x192;" horiz-adv-x="420" d="M410 645 C391 649 369 651 345 651 C230 651 155 587 134 459 L133 453 L56 453 L46 396 L123 396 L46 -42 C33 -116 -26 -163 -82 -177 L-28 -231 C40 -216 118 -147 135 -49 L214 396 L334 396 L347 453 L224 453 L227 470 C239 536 286 575 340 575 C369 575 379 574 393 570 L410 645 Z " />
<glyph glyph-name="circumflex" unicode="&#x2c6;" horiz-adv-x="400" d="M331 561 C278 583 233 626 200 674 C166 626 121 583 68 561 L116 514 C148 529 173 544 200 572 C226 544 251 529 283 514 L331 561 Z " />
<glyph glyph-name="caron" unicode="&#x2c7;" horiz-adv-x="400" d="M331 620 L283 667 C251 651 226 636 200 609 C173 636 148 651 116 667 L68 620 C121 598 166 554 200 507 C233 554 278 598 331 620 L331 620 Z " />
<glyph glyph-name="breve" unicode="&#x2d8;" horiz-adv-x="400" d="M323 561 L272 614 C272 614 239 592 200 592 C162 592 127 614 127 614 L76 561 C76 561 130 514 200 514 C269 514 323 561 323 561 L323 561 Z " />
<glyph glyph-name="dotaccent" unicode="&#x2d9;" horiz-adv-x="400" d="M252 566 C252 584 218 619 200 619 C184 619 148 584 148 566 C148 550 184 514 200 514 C218 514 252 550 252 566 L252 566 Z " />
<glyph glyph-name="ring" unicode="&#x2da;" horiz-adv-x="400" d="M314 617 C314 679 262 730 200 730 C138 730 86 679 86 617 C86 555 138 504 200 504 C262 504 314 555 314 617 L314 617 Z M258 617 C258 583 234 559 200 559 C166 559 142 583 142 617 C142 651 166 675 200 675 C234 675 258 651 258 617 L258 617 Z " />
<glyph glyph-name="ogonek" unicode="&#x2db;" horiz-adv-x="400" d="M293 -161 C276 -172 258 -177 232 -177 C197 -177 174 -160 174 -131 C174 -74 232 -30 292 0 L214 0 C158 -28 111 -79 111 -138 C111 -198 160 -231 218 -231 C247 -231 266 -226 281 -217 L293 -161 Z " />
<glyph glyph-name="tilde" unicode="&#x2dc;" horiz-adv-x="400" d="M342 633 C306 612 266 596 229 590 L214 653 C161 649 125 631 78 605 L60 533 C97 555 137 570 173 575 L188 514 C241 518 278 532 324 563 L342 633 Z " />
<glyph glyph-name="hungarumlaut" unicode="&#x2dd;" horiz-adv-x="400" d="M366 638 L318 687 C287 631 236 569 184 529 L254 514 C300 551 332 582 366 638 L366 638 Z M216 638 L168 687 C137 631 86 569 34 529 L105 514 C150 551 182 582 216 638 L216 638 Z " />
<glyph glyph-name="pi" unicode="&#x3c0;" horiz-adv-x="550" d="M511 0 L511 453 L39 453 L39 0 L511 0 Z M482 29 L300 29 C269 46 248 70 248 112 C248 147 281 191 339 214 L98 384 L482 384 L482 29 Z M257 29 L68 29 L68 361 L197 90 C208 67 224 43 257 29 L257 29 Z " />
<glyph glyph-name="endash" unicode="&#x2013;" horiz-adv-x="580" d="M540 238 L540 316 L40 316 L40 238 L540 238 Z " />
<glyph glyph-name="emdash" unicode="&#x2014;" horiz-adv-x="830" d="M790 238 L790 316 L40 316 L40 238 L790 238 Z " />
<glyph glyph-name="quoteleft" unicode="&#x2018;" horiz-adv-x="197" d="M175 706 L140 712 C93 668 38 572 38 531 C38 508 82 471 99 471 C117 471 160 509 160 531 C160 547 128 576 111 579 C115 609 139 659 175 706 L175 706 Z " />
<glyph glyph-name="quoteright" unicode="&#x2019;" horiz-adv-x="197" d="M159 657 C159 680 115 717 98 717 C79 717 37 679 37 657 C37 641 68 612 86 609 C81 578 57 528 21 482 L56 476 C103 520 159 616 159 657 L159 657 Z " />
<glyph glyph-name="quotesinglbase" unicode="&#x201a;" horiz-adv-x="197" d="M159 50 C159 73 115 110 98 110 C79 110 37 72 37 50 C37 34 68 5 86 2 C81 -29 57 -79 21 -125 L56 -131 C103 -87 159 9 159 50 L159 50 Z " />
<glyph glyph-name="quotedblleft" unicode="&#x201c;" horiz-adv-x="368" d="M348 706 L312 713 C265 668 210 572 210 532 C210 508 254 471 271 471 C289 471 332 509 332 532 C332 547 300 577 283 580 C287 610 311 660 348 706 L348 706 Z M175 706 L140 712 C93 668 38 572 38 531 C38 508 82 471 99 471 C117 471 160 509 160 531 C160 547 128 577 111 579 C115 610 139 660 175 706 L175 706 Z " />
<glyph glyph-name="quotedblright" unicode="&#x201d;" horiz-adv-x="369" d="M331 657 C331 680 286 717 270 717 C251 717 209 679 209 657 C209 642 240 612 258 609 C253 579 229 529 193 483 L228 476 C275 520 331 617 331 657 L331 657 Z M159 657 C159 680 114 717 98 717 C79 717 37 679 37 657 C37 641 68 612 86 609 C81 578 57 528 21 482 L56 476 C103 520 159 616 159 657 L159 657 Z " />
<glyph glyph-name="quotedblbase" unicode="&#x201e;" horiz-adv-x="354" d="M325 50 C325 73 280 110 264 110 C245 110 203 72 203 50 C203 35 234 5 252 2 C247 -28 223 -78 187 -124 L222 -131 C269 -87 325 10 325 50 L325 50 Z M153 50 C153 73 108 110 92 110 C73 110 31 72 31 50 C31 34 62 5 80 2 C75 -29 51 -79 15 -125 L50 -131 C97 -87 153 9 153 50 L153 50 Z " />
<glyph glyph-name="dagger" unicode="&#x2020;" horiz-adv-x="332" d="M323 371 L323 462 L210 444 L212 557 L120 557 L122 444 L8 462 L8 371 L124 389 L138 -231 L193 -231 L208 389 L323 371 Z " />
<glyph glyph-name="daggerdbl" unicode="&#x2021;" horiz-adv-x="332" d="M323 -141 L323 -50 L197 -68 L208 389 L323 371 L323 462 L210 444 L212 557 L120 557 L122 444 L8 462 L8 371 L124 389 L134 -68 L8 -50 L8 -141 L135 -123 L138 -231 L193 -231 L195 -123 L323 -141 Z " />
<glyph glyph-name="bullet" unicode="&#x2022;" horiz-adv-x="395" d="M345 277 C345 364 281 423 198 423 C115 423 50 364 50 277 C50 191 115 132 198 132 C281 132 345 191 345 277 L345 277 Z " />
<glyph glyph-name="ellipsis" unicode="&#x2026;" horiz-adv-x="549" d="M512 50 C512 69 471 110 450 110 C430 110 389 69 389 50 C389 30 430 -11 450 -11 C471 -11 512 30 512 50 L512 50 Z M335 50 C335 69 294 110 274 110 C253 110 213 69 213 50 C213 30 253 -11 274 -11 C294 -11 335 30 335 50 L335 50 Z M159 50 C159 69 118 110 98 110 C78 110 37 69 37 50 C37 30 78 -11 98 -11 C118 -11 159 30 159 50 L159 50 Z " />
<glyph glyph-name="perthousand" unicode="&#x2030;" horiz-adv-x="1057" d="M1021 132 C1021 215 960 275 878 275 C797 275 736 215 736 132 C736 46 797 -12 878 -12 C960 -12 1021 46 1021 132 L1021 132 Z M321 508 C321 592 260 651 178 651 C97 651 36 592 36 508 C36 422 97 364 178 364 C260 364 321 422 321 508 L321 508 Z M632 626 L588 663 L63 13 L107 -24 L632 626 Z M660 132 C660 215 599 275 518 275 C436 275 375 215 375 132 C375 46 436 -12 518 -12 C599 -12 660 46 660 132 L660 132 Z M947 132 C947 86 915 56 878 56 C840 56 810 86 810 132 C810 177 840 204 878 204 C915 204 947 177 947 132 L947 132 Z M247 508 C247 462 215 433 178 433 C140 433 110 462 110 508 C110 553 140 581 178 581 C215 581 247 553 247 508 L247 508 Z M586 132 C586 86 555 56 518 56 C480 56 449 86 449 132 C449 177 480 204 518 204 C555 204 586 177 586 132 L586 132 Z " />
<glyph glyph-name="guilsinglleft" unicode="&#x2039;" horiz-adv-x="231" d="M210 158 C187 202 158 239 119 277 C158 315 187 353 210 396 L158 448 C118 382 65 325 -1 277 C65 231 118 172 158 106 L210 158 Z " />
<glyph glyph-name="guilsinglright" unicode="&#x203a;" horiz-adv-x="231" d="M232 277 C166 325 113 382 73 448 L21 396 C43 353 72 315 111 277 C72 239 43 202 21 158 L73 106 C113 172 166 231 232 277 L232 277 Z " />
<glyph glyph-name="fraction" unicode="&#x2044;" horiz-adv-x="605" d="M587 626 L543 663 L18 13 L62 -24 L587 626 Z " />
<glyph glyph-name="trademark" unicode="&#x2122;" horiz-adv-x="416" d="M382 453 L367 638 L342 638 L278 510 L212 638 L188 638 L173 453 L207 453 L215 557 L269 453 L282 453 L338 559 L347 453 L382 453 Z M161 606 L161 638 L20 638 L20 606 L73 606 L73 453 L108 453 L108 606 L161 606 Z " />
<glyph glyph-name="Omega" unicode="&#x2126;" horiz-adv-x="550" d="M511 0 L511 453 L39 453 L39 0 L511 0 Z M482 29 L300 29 C269 46 248 70 248 112 C248 147 281 191 339 214 L98 384 L482 384 L482 29 Z M257 29 L68 29 L68 361 L197 90 C208 67 224 43 257 29 L257 29 Z " />
<glyph glyph-name="partialdiff" unicode="&#x2202;" horiz-adv-x="550" d="M511 0 L511 453 L39 453 L39 0 L511 0 Z M482 29 L300 29 C269 46 248 70 248 112 C248 147 281 191 339 214 L98 384 L482 384 L482 29 Z M257 29 L68 29 L68 361 L197 90 C208 67 224 43 257 29 L257 29 Z " />
<glyph glyph-name="Delta" unicode="&#x2206;" horiz-adv-x="550" d="M511 0 L511 453 L39 453 L39 0 L511 0 Z M482 29 L300 29 C269 46 248 70 248 112 C248 147 281 191 339 214 L98 384 L482 384 L482 29 Z M257 29 L68 29 L68 361 L197 90 C208 67 224 43 257 29 L257 29 Z " />
<glyph glyph-name="product" unicode="&#x220f;" horiz-adv-x="480" d="M445 448 C445 567 354 651 240 651 C124 651 35 567 35 448 C35 329 124 245 240 245 C354 245 445 329 445 448 L445 448 Z M399 448 C399 352 330 286 240 286 C148 286 79 352 79 448 C79 544 148 610 240 610 C330 610 399 544 399 448 L399 448 Z M337 497 C337 544 296 573 255 573 L178 573 L178 323 L226 323 L226 421 L255 421 C296 421 337 449 337 497 L337 497 Z M290 497 C290 476 274 463 249 463 L226 463 L226 531 L249 531 C274 531 290 518 290 497 L290 497 Z " />
<glyph glyph-name="summation" unicode="&#x2211;" horiz-adv-x="550" d="M511 0 L511 453 L39 453 L39 0 L511 0 Z M482 29 L300 29 C269 46 248 70 248 112 C248 147 281 191 339 214 L98 384 L482 384 L482 29 Z M257 29 L68 29 L68 361 L197 90 C208 67 224 43 257 29 L257 29 Z " />
<glyph glyph-name="minus" unicode="&#x2212;" horiz-adv-x="401" d="M344 240 L344 306 L57 306 L57 240 L344 240 Z " />
<glyph glyph-name="radical" unicode="&#x221a;" horiz-adv-x="559" d="M547 633 L547 712 L414 712 L261 341 C237 284 207 206 188 156 L186 156 C180 175 174 189 168 205 L128 303 L28 303 L16 216 L72 216 L164 -8 L201 -8 L467 633 L547 633 Z " />
<glyph glyph-name="infinity" unicode="&#x221e;" horiz-adv-x="837" d="M762 0 L762 453 L493 453 L493 523 C493 583 526 640 588 640 C631 640 668 626 687 614 L705 690 C679 705 646 716 598 716 C475 716 402 637 402 503 L402 453 L178 453 L178 507 C178 567 211 624 273 624 C316 624 353 610 372 598 L390 674 C364 689 331 700 283 700 C160 700 87 621 87 487 L87 453 L10 453 L10 380 L87 380 L87 0 L178 0 L178 380 L402 380 L402 0 L493 0 L493 380 L671 380 L671 0 L762 0 Z " />
<glyph glyph-name="integral" unicode="&#x222b;" horiz-adv-x="550" d="M511 0 L511 453 L39 453 L39 0 L511 0 Z M482 29 L300 29 C269 46 248 70 248 112 C248 147 281 191 339 214 L98 384 L482 384 L482 29 Z M257 29 L68 29 L68 361 L197 90 C208 67 224 43 257 29 L257 29 Z " />
<glyph glyph-name="approxequal" unicode="&#x2248;" horiz-adv-x="455" d="M415 351 L399 426 C375 400 345 381 303 381 C276 381 255 393 232 403 C211 413 189 422 160 422 C106 422 69 405 40 373 L57 299 C82 325 111 344 152 344 C176 344 198 332 223 322 C244 312 267 303 296 303 C350 303 387 319 415 351 L415 351 Z M415 179 L399 254 C375 228 345 209 303 209 C276 209 255 221 232 231 C211 241 189 250 160 250 C106 250 69 233 40 201 L57 127 C82 153 111 172 152 172 C176 172 198 160 223 150 C244 140 267 131 296 131 C350 131 387 147 415 179 L415 179 Z " />
<glyph glyph-name="notequal" unicode="&#x2260;" horiz-adv-x="650" d="M682 701 C658 711 632 716 605 716 C474 716 402 643 402 495 L402 453 L178 453 L178 507 C178 567 211 624 273 624 C316 624 353 610 372 598 L390 674 C364 689 331 700 283 700 C160 700 87 621 87 487 L87 453 L10 453 L10 380 L87 380 L87 0 L178 0 L178 380 L402 380 L402 0 L493 0 L493 380 L609 380 L624 453 L493 453 L493 523 C493 583 526 640 588 640 C615 640 643 635 666 624 L682 701 Z " />
<glyph glyph-name="lessequal" unicode="&#x2264;" horiz-adv-x="358" d="M279 241 L158 363 L279 485 L220 543 L40 363 L220 183 L279 241 Z M294 0 L294 78 L44 78 L44 0 L294 0 Z " />
<glyph glyph-name="greaterequal" unicode="&#x2265;" horiz-adv-x="358" d="M319 363 L139 543 L80 485 L201 363 L80 241 L139 183 L319 363 Z M315 0 L315 78 L65 78 L65 0 L315 0 Z " />
<glyph glyph-name="lozenge" unicode="&#x25ca;" horiz-adv-x="585" d="M510 277 L287 499 L65 277 L287 55 L510 277 Z M426 277 L287 138 L149 277 L287 415 L426 277 Z " />
<glyph glyph-name="fi" unicode="&#xfb01;" horiz-adv-x="522" d="M447 0 L447 453 L178 453 L178 523 C178 583 211 640 273 640 C316 640 353 626 372 614 L390 690 C364 705 331 716 283 716 C160 716 87 637 87 503 L87 453 L10 453 L10 380 L87 380 L87 0 L178 0 L178 380 L356 380 L356 0 L447 0 Z " />
<glyph glyph-name="fl" unicode="&#xfb02;" horiz-adv-x="570" d="M534 47 C505 52 473 80 473 122 L473 671 C430 704 381 716 320 716 C186 716 87 629 87 472 L87 453 L10 453 L10 380 L87 380 L87 0 L178 0 L178 380 L263 380 L279 453 L178 453 L178 492 C178 586 236 640 306 640 C342 640 363 637 382 628 L382 110 C382 23 442 -7 472 -15 L534 47 Z " />
</font>
</svg>
